<svg xmlns="http://www.w3.org/2000/svg" width="125" height="24" viewBox="0 0 125 24" fill="none">
  <mask id="mask0_918_133" style="mask-type:alpha" maskUnits="userSpaceOnUse" x="0" y="0" width="125" height="24">
    <path d="M12.7396 0.898682L7.16327 21.731C7.16327 21.731 12.3285 14.8528 18.3582 21.7495L12.7396 0.898682Z" fill="#FFDA01"/>
    <path d="M12.7343 0C6.10648 0 0.733032 5.36818 0.733032 11.9987C0.733032 18.6292 6.10648 24 12.7343 24C19.3622 24 24.733 18.6292 24.733 11.9987C24.733 5.36818 19.3596 0 12.7343 0ZM21.7077 18.1996L20.3742 17.944C19.9394 18.5053 19.4624 18.9981 18.9195 19.4514L19.0328 20.8929L17.3093 21.8996L16.2841 21.0063C15.6438 21.2593 14.977 21.4385 14.276 21.5491L13.6383 22.8589L11.6433 22.851L11.2269 21.5597C10.5734 21.4622 9.96725 21.2961 9.36376 21.0721L8.16468 21.8944L6.43063 20.9035L6.6968 19.57C6.19081 19.1642 5.73753 18.7241 5.32115 18.2286L3.87962 18.3525L2.85975 16.6369L3.74522 15.6038C3.48432 14.9582 3.30248 14.2835 3.18653 13.5772L1.87677 12.9448V10.9498L3.16545 10.5308C3.2735 9.80872 3.4606 9.14198 3.71887 8.48051L2.91509 7.27089L3.93233 5.55529L5.26844 5.82936C5.65584 5.36027 6.08803 4.93335 6.55449 4.54332L6.44117 3.10179L8.16468 2.09773L9.18719 2.99374C9.81967 2.74338 10.4706 2.56945 11.1611 2.45877L11.7962 1.14901H13.7911L14.2101 2.44032C14.9059 2.54573 15.5463 2.7223 16.1866 2.96739L17.3936 2.1557L19.1171 3.1624L18.8483 4.49588C19.349 4.90436 19.8023 5.35764 20.2134 5.85308L21.6523 5.74503L22.6538 7.47118L21.7551 8.48841C21.9896 9.08927 22.1557 9.69803 22.2664 10.3463L23.5814 10.9656L23.5998 12.9632L22.3138 13.3954C22.2216 14.0542 22.0608 14.6656 21.8421 15.2691L22.6775 16.4603L21.7077 18.2049V18.1996Z" fill="#FFDA01"/>
    <path d="M34.2519 8.4806V10.1224H37.2509V13.3797H36.0386V11.2688H30.2514V10.1224H32.979V8.4806H29.2052V7.3474H35.6328C35.7039 7.03116 35.7777 6.66222 35.8568 6.23529C35.9358 5.80837 35.9938 5.38935 36.0281 4.9756H30.2198V3.84241H37.4301C37.4301 4.02161 37.4037 4.30886 37.351 4.7068C37.2983 5.10473 37.2482 5.43679 37.2008 5.70822C37.1323 6.08244 37.0743 6.39341 37.0269 6.63323C36.9821 6.87568 36.932 7.11549 36.8767 7.3474H38.3999V8.4806H34.2519Z" fill="#231815"/>
    <path d="M44.0105 8.92852V3.85023H45.2228V5.2654H47.5102V3.85023H48.7225V8.92852H44.0105ZM50.8492 12.9738C50.2404 13.3348 49.3523 13.5114 48.1901 13.5114C47.028 13.5114 46.153 13.3322 45.5469 12.9738C44.9408 12.6127 44.6377 12.1489 44.6377 11.5823C44.6377 11.0157 44.9408 10.5545 45.5469 10.1882C46.153 9.8219 47.0332 9.63742 48.1901 9.63742C49.3471 9.63742 50.2404 9.8219 50.8492 10.1882C51.458 10.5545 51.7637 11.021 51.7637 11.5823C51.7637 12.1436 51.4606 12.6154 50.8492 12.9738ZM47.5102 6.43549H45.2228V7.74789H47.5102V6.43549ZM49.803 10.9577C49.3945 10.8049 48.8595 10.7285 48.198 10.7285C47.5366 10.7285 46.9832 10.8049 46.58 10.9577C46.1767 11.1106 45.9738 11.324 45.9738 11.5928C45.9738 11.8616 46.1767 12.0725 46.58 12.228C46.9832 12.3808 47.5234 12.4572 48.198 12.4572C48.8727 12.4572 49.3945 12.3808 49.803 12.228C50.2114 12.0751 50.4144 11.8643 50.4144 11.5928C50.4144 11.3214 50.2114 11.1106 49.803 10.9577ZM51.5317 6.89667V9.36862H50.3195V3.49182H51.5317V5.73976H52.7967V6.89667H51.5317Z" fill="#231815"/>
    <path d="M62.5474 11.5191C61.5592 11.606 60.339 11.6482 58.8896 11.6482H57.8855V10.5018H59.6116V7.52388H60.8239V10.4676C61.235 10.4676 61.8807 10.4359 62.7635 10.3727C63.6437 10.3094 64.1708 10.2594 64.3473 10.2225V11.3478C64.1391 11.3767 63.5383 11.4347 62.55 11.5191M63.591 5.85572C63.5515 6.33798 63.5093 6.76754 63.4592 7.14176C63.3907 7.72681 63.3248 8.20907 63.2642 8.58593C63.2062 8.96541 63.172 9.1657 63.1641 9.18678H61.9624C61.9755 9.12617 62.0414 8.66762 62.16 7.81114C62.2786 6.95202 62.3392 6.23257 62.3471 5.64753H58.3572V4.51433H63.6542C63.6463 4.92544 63.6253 5.37345 63.5857 5.85572M65.9312 8.78358V13.3796H64.7163V3.49182H65.9312V7.62666H67.2488V8.78358H65.9312Z" fill="#231815"/>
    <path d="M72.3904 4.94118H78.2303V5.97423H72.3904V4.94118ZM77.2236 9.11555C76.7546 9.43442 76.1142 9.59255 75.3051 9.59255C74.5461 9.59255 73.9216 9.43442 73.4261 9.11555C72.9307 8.79667 72.6856 8.40137 72.6856 7.93228C72.6856 7.46319 72.9307 7.07316 73.4209 6.76747C73.911 6.4644 74.5461 6.31419 75.3288 6.31419C76.1115 6.31419 76.773 6.4644 77.2368 6.76747C77.698 7.07053 77.9299 7.45792 77.9299 7.93228C77.9299 8.40664 77.6954 8.79931 77.2263 9.11555M79.0183 13.3795V11.3898H73.4393V10.2672H80.2622V13.3795H79.0209H79.0183ZM73.7714 3.4364H76.8415V4.46945H73.7714V3.4364ZM76.2934 7.44738C76.0615 7.3367 75.7373 7.27872 75.3288 7.27872C74.9204 7.27872 74.6015 7.3367 74.3511 7.45265C74.1034 7.56861 73.9795 7.72673 73.9795 7.92965C73.9795 8.13257 74.1034 8.3065 74.3511 8.43036C74.5989 8.55159 74.9256 8.61484 75.3288 8.61484C75.732 8.61484 76.0615 8.55159 76.2934 8.42509C76.5279 8.2986 76.6465 8.12993 76.6465 7.92174C76.6465 7.71355 76.5306 7.5607 76.2934 7.45002M80.2596 7.33933V9.78756H79.0473V3.49174H80.2596V6.17715H81.514V7.3367H80.2596V7.33933Z" fill="#231815"/>
    <path d="M93.7498 4.76205V3.49182H94.962V10.6389H93.7498V7.86384H91.5229C91.2937 8.16427 91.0011 8.40409 90.6454 8.58856C90.2896 8.77303 89.8916 8.86527 89.4515 8.86527C88.7057 8.86527 88.0943 8.61491 87.6147 8.12211C87.1351 7.6293 86.8926 7.03371 86.8926 6.33535C86.8926 5.63698 87.1325 5.0414 87.6147 4.54332C88.097 4.04788 88.7084 3.79752 89.4515 3.79752C89.8837 3.79752 90.2738 3.88712 90.6243 4.06105C90.9721 4.23762 91.262 4.47217 91.4913 4.76205H93.7471H93.7498ZM88.4791 5.3471C88.2525 5.62381 88.1392 5.95322 88.1392 6.33535C88.1392 6.71747 88.2551 7.03635 88.4791 7.31306C88.7057 7.58977 89.0325 7.72681 89.4542 7.72681C89.8758 7.72681 90.2158 7.58977 90.4424 7.31306C90.6691 7.03635 90.7824 6.70957 90.7824 6.33535C90.7824 5.96113 90.6691 5.62381 90.4424 5.3471C90.2158 5.07039 89.8864 4.93071 89.4542 4.93071C89.022 4.93071 88.7057 5.06775 88.4791 5.3471ZM88.2235 13.1556V9.98529H89.4779V12.0198H95.1729V13.1556H88.2235ZM93.7524 6.76227V5.87416H91.9867C91.9999 5.95059 92.0105 6.02438 92.0184 6.1008C92.0263 6.17459 92.0289 6.25365 92.0289 6.33535C92.0289 6.40914 92.0263 6.48293 92.0236 6.55408C92.021 6.62524 92.0131 6.69375 91.9973 6.76227H93.7524Z" fill="#231815"/>
    <path d="M105.777 9.25522V13.3795H104.534V9.25522H100.781V8.12203H107.124C107.206 7.85323 107.303 7.4184 107.411 6.81754C107.519 6.21932 107.588 5.65799 107.614 5.13356H101.803V4.00037H109.003C109.003 4.16639 108.972 4.50635 108.908 5.02815C108.845 5.54731 108.784 5.98741 108.729 6.34845C108.674 6.71476 108.608 7.06263 108.531 7.38941C108.455 7.71355 108.4 7.96128 108.365 8.12467H109.973V9.25786H105.775L105.777 9.25522Z" fill="#231815"/>
    <path d="M115.096 12.3123V11.1791H119.039V9.25794H120.332V11.1791H124.293V12.3123H115.099H115.096ZM119.199 7.57659C118.959 7.83749 118.677 8.09575 118.356 8.35665C118.016 8.63336 117.66 8.86527 117.286 9.04974C116.914 9.23158 116.617 9.36598 116.393 9.44768L115.61 8.53849C115.937 8.41199 116.306 8.23015 116.722 7.99825C117.138 7.76897 117.536 7.47908 117.919 7.13386C118.282 6.80444 118.554 6.42231 118.735 5.98748C118.917 5.55265 119.007 5.10465 119.007 4.63819V3.8186H120.385V4.63819C120.385 5.10465 120.475 5.55265 120.657 5.98748C120.838 6.42231 121.11 6.80444 121.471 7.13386C121.861 7.47908 122.262 7.76634 122.673 7.99825C123.084 8.23015 123.453 8.41199 123.782 8.53849L122.997 9.44768C122.773 9.36598 122.475 9.23158 122.103 9.04974C121.729 8.86527 121.373 8.63336 121.031 8.35665C120.712 8.09575 120.435 7.83485 120.201 7.57659C119.966 7.31833 119.798 7.07324 119.695 6.84133C119.602 7.07324 119.436 7.31833 119.199 7.57659Z" fill="#231815"/>
    <path d="M33.3427 20.105H32.6601L32.2517 19.0061H30.2725L29.8693 20.105H29.1868L30.876 15.5195H31.6429L33.3427 20.105ZM32.0066 18.3446L31.266 16.3207L30.515 18.3446H32.0039H32.0066Z" fill="#231815"/>
    <path d="M36.7106 16.7817V19.8414C36.7106 20.3421 36.5525 20.7163 36.2336 20.9666C35.9727 21.1748 35.6354 21.2776 35.2217 21.2776C34.7842 21.2776 34.4284 21.159 34.1517 20.9218C33.8934 20.711 33.7538 20.4448 33.7301 20.1286H34.3968C34.4047 20.2788 34.4785 20.4053 34.6182 20.5081C34.7736 20.6214 34.9766 20.6794 35.2269 20.6794C35.7803 20.6794 36.0571 20.4106 36.0571 19.8782V19.4803C35.783 19.7755 35.4509 19.9204 35.0609 19.9204C34.6445 19.9204 34.294 19.7649 34.0147 19.4513C33.7353 19.1377 33.593 18.7451 33.593 18.276C33.593 17.8069 33.7327 17.4274 34.012 17.1217C34.2914 16.8186 34.6419 16.6658 35.0609 16.6658C35.4799 16.6658 35.7988 16.8028 36.0571 17.069V16.7817H36.7106ZM35.1742 19.2853C35.443 19.2853 35.6591 19.1931 35.8199 19.0112C35.9806 18.8294 36.0623 18.5843 36.0623 18.276C36.0623 17.9676 35.9806 17.7252 35.8199 17.5486C35.6591 17.3747 35.443 17.2877 35.1742 17.2877C34.9054 17.2877 34.6972 17.3747 34.5391 17.5486C34.3783 17.7225 34.2993 17.9624 34.2993 18.276C34.2993 18.5896 34.3783 18.8347 34.5391 19.0139C34.6972 19.1931 34.9107 19.2853 35.1742 19.2853Z" fill="#231815"/>
    <path d="M40.4423 18.6793H37.9861C38.0046 18.9297 38.0995 19.1458 38.2681 19.3329C38.4368 19.5174 38.6344 19.6096 38.8637 19.6096C39.0614 19.6096 39.2327 19.5569 39.3829 19.4515C39.4988 19.3645 39.5779 19.267 39.6148 19.1511H40.3421C40.2552 19.4462 40.1049 19.6913 39.8915 19.8784C39.6227 20.1156 39.2827 20.2342 38.8742 20.2342C38.4157 20.2342 38.0336 20.0629 37.7305 19.7203C37.4274 19.3777 37.2746 18.9508 37.2746 18.4421C37.2746 17.9335 37.4222 17.4908 37.7147 17.1508C38.0072 16.8109 38.392 16.6422 38.8663 16.6422C39.3407 16.6422 39.7017 16.803 39.989 17.1324C40.3158 17.4987 40.466 18.0152 40.4449 18.6793M37.9993 18.0916H39.7281C39.6991 17.8466 39.6069 17.6463 39.4514 17.4908C39.2985 17.3353 39.1009 17.2589 38.8637 17.2589C38.6265 17.2589 38.4394 17.3353 38.2866 17.4855C38.1337 17.6357 38.0362 17.8387 37.9993 18.0916Z" fill="#231815"/>
    <path d="M43.8155 17.865V20.1024H43.1487V18.1627C43.1487 17.6304 42.9326 17.3616 42.5057 17.3616C42.2738 17.3616 42.0841 17.4459 41.9365 17.612C41.7889 17.7806 41.7151 17.9915 41.7151 18.2497V20.1024H41.0563V16.8003H41.7151V17.1113C41.9945 16.8266 42.316 16.6843 42.6744 16.6843C42.7297 16.6843 42.7824 16.6843 42.8404 16.6896C43.1514 16.7212 43.3991 16.8688 43.5809 17.1297C43.7364 17.3484 43.8128 17.5962 43.8128 17.8623" fill="#231815"/>
    <path d="M46.7091 19.0219L47.4311 19.0272C47.3495 19.3698 47.1861 19.6465 46.9489 19.8573C46.6801 20.1077 46.3454 20.2315 45.9475 20.2315C45.4652 20.2315 45.0831 20.0629 44.7984 19.7308C44.5138 19.3961 44.3715 18.9692 44.3715 18.4448C44.3715 17.9203 44.5138 17.496 44.7984 17.1614C45.0831 16.8293 45.4652 16.6606 45.9475 16.6606C46.3454 16.6606 46.688 16.795 46.97 17.0586C47.2177 17.2879 47.3705 17.5593 47.4311 17.8729H46.7143C46.6801 17.7253 46.6063 17.5988 46.493 17.4934C46.348 17.3643 46.1688 17.2984 45.9527 17.2984C45.6839 17.2984 45.4678 17.4038 45.3097 17.6146C45.1516 17.8255 45.0699 18.1048 45.0699 18.4448C45.0699 18.7847 45.1516 19.0614 45.3123 19.2749C45.4731 19.4884 45.6866 19.5964 45.9527 19.5964C46.1504 19.5964 46.319 19.5358 46.4587 19.4198C46.5852 19.3144 46.6669 19.18 46.7091 19.0219Z" fill="#231815"/>
    <path d="M50.6515 16.803L49.2021 20.6796C49.1099 20.9194 48.9754 21.088 48.7936 21.1882C48.6618 21.2567 48.4774 21.291 48.2481 21.2857L47.9688 21.2804V20.6954H48.2876C48.4431 20.6954 48.5538 20.6084 48.617 20.4371L48.7488 20.0866L47.5076 16.803H48.2059L49.0703 19.1748L49.9637 16.803H50.6515Z" fill="#231815"/>
    <path d="M54.3041 17.3642H53.8587V20.105H53.1894V17.3642H52.8125V16.7713H53.192V16.4049C53.192 16.1045 53.25 15.8911 53.3633 15.7672C53.4924 15.5827 53.669 15.4931 53.893 15.4984L54.3041 15.5037V16.0966C54.1328 16.0966 54.0195 16.123 53.9615 16.1704C53.893 16.231 53.8587 16.347 53.8587 16.5183V16.7686H54.3041V17.3616V17.3642Z" fill="#231815"/>
    <path d="M56.1541 16.6658C56.6337 16.6658 57.0185 16.8344 57.3084 17.1665C57.5983 17.5012 57.7406 17.9281 57.7406 18.4446C57.7406 18.9611 57.5983 19.3881 57.3137 19.7175C57.0211 20.0601 56.6337 20.2314 56.1541 20.2314C55.6745 20.2314 55.2976 20.0601 55.0051 19.7175C54.7205 19.3854 54.5782 18.9638 54.5782 18.4446C54.5782 17.9255 54.7205 17.5012 55.0104 17.1665C55.2976 16.8344 55.6798 16.6658 56.1541 16.6658ZM56.1541 19.6015C56.4176 19.6015 56.6311 19.4935 56.7945 19.2774C56.9553 19.0613 57.037 18.7846 57.037 18.4446C57.037 18.1047 56.9553 17.8306 56.7945 17.6198C56.6337 17.4089 56.4203 17.3035 56.1541 17.3035C55.8879 17.3035 55.6771 17.4089 55.5164 17.6198C55.3556 17.8306 55.2765 18.1073 55.2765 18.4446C55.2765 18.7819 55.3556 19.0613 55.5164 19.2774C55.6771 19.4935 55.8879 19.6015 56.1541 19.6015Z" fill="#231815"/>
    <path d="M60.0491 16.6527V17.3695C59.8251 17.3695 59.6433 17.4091 59.5089 17.4907C59.1821 17.6858 59.0187 18.0363 59.0187 18.537V20.1024H58.3599V16.7871H59.0187V17.214C59.161 17.0006 59.3402 16.8451 59.5589 16.7449C59.6301 16.7107 59.7302 16.687 59.8594 16.6712C59.9253 16.6633 59.9859 16.658 60.0465 16.6527" fill="#231815"/>
    <path d="M64.1207 15.5168C64.7163 15.5168 65.1986 15.7382 65.5649 16.1783C65.918 16.6052 66.0946 17.1508 66.0946 17.8122C66.0946 18.4737 65.918 19.0218 65.5649 19.4461C65.2012 19.8862 64.719 20.105 64.1207 20.105H62.6186V15.5195H64.1207V15.5168ZM64.0074 19.4567C64.4502 19.4567 64.7954 19.2959 65.0378 18.9797C65.2618 18.6898 65.3752 18.2998 65.3752 17.8122C65.3752 17.3247 65.2618 16.9426 65.0378 16.65C64.7954 16.3338 64.4528 16.173 64.0074 16.173H63.2801V19.4593H64.0074V19.4567Z" fill="#231815"/>
    <path d="M69.7393 18.6793H67.2831C67.3016 18.9297 67.3938 19.1458 67.5651 19.3329C67.7338 19.5174 67.9341 19.6096 68.1581 19.6096C68.3557 19.6096 68.5297 19.5569 68.6772 19.4515C68.7932 19.3645 68.8723 19.267 68.9091 19.1511H69.6365C69.5495 19.4462 69.3993 19.6913 69.1859 19.8784C68.9171 20.1156 68.5771 20.2342 68.1686 20.2342C67.7101 20.2342 67.3279 20.0629 67.0249 19.7203C66.7218 19.3777 66.569 18.9508 66.569 18.4421C66.569 17.9335 66.7165 17.4908 67.0117 17.1508C67.3069 16.8109 67.689 16.6422 68.1633 16.6422C68.6377 16.6422 68.9987 16.803 69.2834 17.1324C69.6101 17.4987 69.763 18.0152 69.7393 18.6793ZM67.2937 18.0916H69.0225C68.9935 17.8466 68.8986 17.6463 68.7458 17.4908C68.5929 17.3353 68.3979 17.2589 68.1581 17.2589C67.9183 17.2589 67.7338 17.3353 67.5809 17.4855C67.4281 17.6357 67.3306 17.8387 67.2937 18.0916Z" fill="#231815"/>
    <path d="M71.5498 17.3642H71.1044V20.105H70.4324V17.3642H70.0555V16.7713H70.4377V16.4049C70.4377 16.1045 70.4957 15.8911 70.6063 15.7672C70.7355 15.5827 70.912 15.4931 71.1334 15.4984L71.5445 15.5037V16.0966C71.3706 16.0966 71.2599 16.123 71.2019 16.1704C71.1334 16.231 71.0991 16.347 71.0991 16.5183V16.7686H71.5445V17.3616L71.5498 17.3642Z" fill="#231815"/>
    <path d="M74.9915 18.6793H72.5354C72.5538 18.9297 72.6461 19.1458 72.8147 19.3329C72.9834 19.5174 73.1837 19.6096 73.4103 19.6096C73.608 19.6096 73.7819 19.5569 73.9295 19.4515C74.0454 19.3645 74.1245 19.267 74.1614 19.1511H74.8914C74.8044 19.4462 74.6516 19.6913 74.4407 19.8784C74.1693 20.1156 73.832 20.2342 73.4209 20.2342C72.9623 20.2342 72.5828 20.0629 72.2771 19.7203C71.9741 19.3777 71.8239 18.9508 71.8239 18.4421C71.8239 17.9335 71.9688 17.4908 72.2666 17.1508C72.5591 16.8109 72.9439 16.6422 73.4182 16.6422C73.8926 16.6422 74.2536 16.803 74.5382 17.1324C74.8624 17.4987 75.0152 18.0152 74.9915 18.6793ZM72.5459 18.0916H74.2747C74.2457 17.8466 74.1535 17.6463 74.0006 17.4908C73.8478 17.3353 73.6501 17.2589 73.4103 17.2589C73.1705 17.2589 72.9887 17.3353 72.8358 17.4855C72.683 17.6357 72.5855 17.8387 72.5459 18.0916Z" fill="#231815"/>
    <path d="M78.3648 17.865V20.1024H77.7007V18.1627C77.7007 17.6304 77.4846 17.3616 77.0576 17.3616C76.8257 17.3616 76.636 17.4459 76.4884 17.612C76.3408 17.7806 76.267 17.9915 76.267 18.2497V20.1024H75.6082V16.8003H76.267V17.1113C76.549 16.8266 76.8705 16.6843 77.2289 16.6843C77.2817 16.6843 77.3396 16.6843 77.395 16.6896C77.7059 16.7212 77.951 16.8688 78.1329 17.1297C78.2884 17.3484 78.3648 17.5962 78.3648 17.8623" fill="#231815"/>
    <path d="M81.116 18.3235C81.5218 18.5475 81.7142 18.8295 81.6958 19.1668C81.68 19.4699 81.5403 19.7229 81.2741 19.9311C81.008 20.1393 80.6917 20.2421 80.3254 20.2421C79.8379 20.2421 79.4557 20.0918 79.1869 19.7914C78.9814 19.5595 78.8733 19.2933 78.8628 19.0035H79.519C79.5374 19.1774 79.6139 19.3197 79.7456 19.4251C79.8853 19.5437 80.0698 19.6043 80.3017 19.6043C80.7128 19.6043 80.9394 19.4725 80.9842 19.2143C81.0132 19.0588 80.9078 18.9323 80.6785 18.8295C80.5547 18.7715 80.3702 18.7162 80.1278 18.6661C79.8589 18.6055 79.6903 18.5607 79.627 18.537C79.1685 18.3736 78.9498 18.0784 78.9787 17.6436C78.9919 17.3774 79.1158 17.1508 79.3477 16.9584C79.6007 16.7502 79.9117 16.6475 80.2806 16.6475C80.6785 16.6475 81.0027 16.7687 81.2583 17.0138C81.4797 17.2351 81.5904 17.4829 81.5825 17.7596H80.9342C80.9421 17.6463 80.892 17.5408 80.7919 17.446C80.6654 17.3326 80.4941 17.2747 80.2727 17.2747C80.075 17.2747 79.9222 17.3142 79.8089 17.3906C79.7087 17.4565 79.6587 17.5408 79.6534 17.6489C79.6455 17.7543 79.6797 17.836 79.7562 17.8913C79.8089 17.9309 79.909 17.9757 80.0513 18.0205C80.2226 18.0626 80.3913 18.1022 80.5626 18.1391C80.8103 18.1944 80.9921 18.2603 81.1134 18.3288" fill="#231815"/>
    <path d="M85.2298 18.6793H82.7737C82.7921 18.9297 82.8844 19.1458 83.0557 19.3329C83.2243 19.5174 83.4246 19.6096 83.6486 19.6096C83.8463 19.6096 84.0202 19.5569 84.1678 19.4515C84.2837 19.3645 84.3628 19.267 84.3997 19.1511H85.127C85.0401 19.4462 84.8899 19.6913 84.679 19.8784C84.4102 20.1156 84.0703 20.2342 83.6618 20.2342C83.2032 20.2342 82.8211 20.0629 82.518 19.7203C82.215 19.3777 82.0621 18.9508 82.0621 18.4421C82.0621 17.9335 82.2097 17.4908 82.5049 17.1508C82.7974 16.8109 83.1822 16.6422 83.6565 16.6422C84.1309 16.6422 84.4919 16.803 84.7765 17.1324C85.1033 17.4987 85.2535 18.0152 85.2325 18.6793M82.7869 18.0916H84.5156C84.484 17.8466 84.3918 17.6463 84.2389 17.4908C84.0861 17.3353 83.8911 17.2589 83.6512 17.2589C83.4114 17.2589 83.227 17.3353 83.0741 17.4855C82.9213 17.6357 82.8237 17.8387 82.7869 18.0916Z" fill="#231815"/>
    <path d="M89.3356 15.5168C89.9312 15.5168 90.4109 15.7382 90.7798 16.1783C91.1303 16.6052 91.3095 17.1508 91.3095 17.8122C91.3095 18.4737 91.1329 19.0218 90.7798 19.4461C90.4161 19.8862 89.9339 20.105 89.3356 20.105H87.8335V15.5195H89.3356V15.5168ZM89.2223 19.4567C89.6651 19.4567 90.0103 19.2959 90.2527 18.9797C90.4741 18.6898 90.5901 18.2998 90.5901 17.8122C90.5901 17.3247 90.4767 16.9426 90.2527 16.65C90.0103 16.3338 89.6651 16.173 89.2223 16.173H88.495V19.4593H89.2223V19.4567Z" fill="#231815"/>
    <path d="M94.9568 18.6793H92.5007C92.5191 18.9297 92.6114 19.1458 92.7827 19.3329C92.9513 19.5174 93.1516 19.6096 93.3782 19.6096C93.5759 19.6096 93.7498 19.5569 93.8974 19.4515C94.0133 19.3645 94.0924 19.267 94.1293 19.1511H94.8567C94.7697 19.4462 94.6195 19.6913 94.406 19.8784C94.1372 20.1156 93.7973 20.2342 93.3888 20.2342C92.9302 20.2342 92.5481 20.0629 92.245 19.7203C91.942 19.3777 91.7891 18.9508 91.7891 18.4421C91.7891 17.9335 91.9367 17.4908 92.2319 17.1508C92.527 16.8109 92.9091 16.6422 93.3835 16.6422C93.8579 16.6422 94.2189 16.803 94.5035 17.1324C94.8303 17.4987 94.9805 18.0152 94.9594 18.6793M92.5138 18.0916H94.2426C94.2136 17.8466 94.1214 17.6463 93.9659 17.4908C93.8131 17.3353 93.618 17.2589 93.3782 17.2589C93.1384 17.2589 92.9539 17.3353 92.8011 17.4855C92.6482 17.6357 92.5507 17.8387 92.5138 18.0916Z" fill="#231815"/>
    <path d="M98.222 16.803L97.0308 20.1051H96.2692L95.0754 16.803H95.7817L96.6513 19.2486L97.5262 16.803H98.222Z" fill="#231815"/>
    <path d="M101.519 18.6793H99.0627C99.0811 18.9297 99.1734 19.1458 99.342 19.3329C99.5107 19.5174 99.7083 19.6096 99.935 19.6096C100.133 19.6096 100.307 19.5569 100.454 19.4515C100.57 19.3645 100.649 19.267 100.686 19.1511H101.416C101.326 19.4462 101.176 19.6913 100.965 19.8784C100.694 20.1156 100.354 20.2342 99.9481 20.2342C99.4896 20.2342 99.1075 20.0629 98.8044 19.7203C98.5013 19.3777 98.3511 18.9508 98.3511 18.4421C98.3511 17.9335 98.4961 17.4908 98.7939 17.1508C99.0864 16.8109 99.4685 16.6422 99.9455 16.6422C100.423 16.6422 100.781 16.803 101.066 17.1324C101.39 17.4987 101.543 18.0152 101.519 18.6793ZM99.0732 18.0916H100.802C100.773 17.8466 100.681 17.6463 100.528 17.4908C100.375 17.3353 100.177 17.2589 99.9402 17.2589C99.7031 17.2589 99.516 17.3353 99.3631 17.4855C99.2103 17.6357 99.1127 17.8387 99.0732 18.0916Z" fill="#231815"/>
    <path d="M102.794 15.5037H102.135V20.1023H102.794V15.5037Z" fill="#231815"/>
    <path d="M104.99 16.6658C105.472 16.6658 105.857 16.8344 106.144 17.1665C106.434 17.5012 106.579 17.9281 106.579 18.4446C106.579 18.9611 106.436 19.3881 106.152 19.7175C105.859 20.0601 105.472 20.2314 104.992 20.2314C104.513 20.2314 104.133 20.0601 103.843 19.7175C103.559 19.3854 103.416 18.9638 103.416 18.4446C103.416 17.9255 103.559 17.5012 103.846 17.1665C104.136 16.8344 104.515 16.6658 104.99 16.6658ZM104.99 19.6015C105.253 19.6015 105.467 19.4935 105.63 19.2774C105.791 19.0613 105.872 18.7846 105.872 18.4446C105.872 18.1047 105.791 17.8306 105.63 17.6198C105.467 17.4089 105.253 17.3035 104.99 17.3035C104.726 17.3035 104.513 17.4089 104.352 17.6198C104.194 17.8306 104.112 18.1073 104.112 18.4446C104.112 18.7819 104.194 19.0613 104.352 19.2774C104.513 19.4935 104.723 19.6015 104.99 19.6015Z" fill="#231815"/>
    <path d="M108.853 16.6658C109.29 16.6658 109.649 16.8292 109.92 17.1507C110.189 17.4775 110.326 17.9071 110.326 18.4447C110.326 18.9823 110.192 19.4145 109.92 19.7386C109.649 20.0628 109.29 20.2262 108.853 20.2262C108.458 20.2262 108.128 20.0812 107.857 19.7914V21.2144H107.198V16.7923H107.857V17.0901C108.12 16.8055 108.455 16.6632 108.853 16.6632M108.74 19.5858C109.014 19.5858 109.227 19.483 109.385 19.2827C109.538 19.0772 109.617 18.7978 109.617 18.4421C109.617 18.0863 109.541 17.8043 109.388 17.6014C109.235 17.4011 109.016 17.2983 108.74 17.2983C108.463 17.2983 108.247 17.3985 108.091 17.6014C107.936 17.8043 107.859 18.0837 107.859 18.4421C107.859 18.8005 107.936 19.0772 108.091 19.2827C108.247 19.4857 108.463 19.5858 108.74 19.5858Z" fill="#231815"/>
    <path d="M115.122 17.8597V20.105H114.456V18.0679C114.456 17.8043 114.427 17.6198 114.369 17.5171C114.298 17.38 114.161 17.3194 113.958 17.3326C113.768 17.3405 113.62 17.4196 113.51 17.5645C113.404 17.7121 113.349 17.915 113.349 18.1759V20.1023H112.693V18.0652C112.693 17.8043 112.664 17.6198 112.603 17.5144C112.527 17.3774 112.387 17.3168 112.187 17.33C112.002 17.3379 111.855 17.4169 111.749 17.5619C111.644 17.7094 111.591 17.9124 111.591 18.1733V20.0997H110.932V16.7976H111.591V17.1218C111.873 16.8055 112.184 16.6553 112.524 16.6817C112.848 16.7054 113.08 16.8767 113.225 17.1903C113.483 16.8503 113.794 16.6817 114.155 16.6817C114.2 16.6817 114.247 16.6817 114.298 16.6869C114.577 16.7159 114.79 16.8477 114.935 17.0849C115.057 17.2878 115.117 17.5461 115.117 17.8544" fill="#231815"/>
    <path d="M118.846 18.6793H116.39C116.408 18.9297 116.503 19.1458 116.672 19.3329C116.841 19.5174 117.038 19.6096 117.265 19.6096C117.463 19.6096 117.634 19.5569 117.781 19.4515C117.9 19.3645 117.976 19.267 118.016 19.1511H118.743C118.654 19.4462 118.506 19.6913 118.293 19.8784C118.024 20.1156 117.684 20.2342 117.275 20.2342C116.817 20.2342 116.435 20.0629 116.132 19.7203C115.829 19.3777 115.678 18.9508 115.678 18.4421C115.678 17.9335 115.823 17.4908 116.119 17.1508C116.414 16.8109 116.796 16.6422 117.27 16.6422C117.745 16.6422 118.106 16.803 118.393 17.1324C118.72 17.4987 118.872 18.0152 118.846 18.6793ZM116.401 18.0916H118.129C118.1 17.8466 118.008 17.6463 117.855 17.4908C117.702 17.3353 117.505 17.2589 117.265 17.2589C117.025 17.2589 116.843 17.3353 116.688 17.4855C116.535 17.6357 116.437 17.8387 116.401 18.0916Z" fill="#231815"/>
    <path d="M122.219 17.865V20.1024H121.555V18.1627C121.555 17.6304 121.339 17.3616 120.91 17.3616C120.68 17.3616 120.491 17.4459 120.34 17.612C120.193 17.7806 120.122 17.9915 120.122 18.2497V20.1024H119.46V16.8003H120.122V17.1113C120.401 16.8266 120.722 16.6843 121.084 16.6843C121.136 16.6843 121.192 16.6843 121.247 16.6896C121.558 16.7212 121.806 16.8688 121.987 17.1297C122.146 17.3484 122.222 17.5962 122.222 17.8623" fill="#231815"/>
    <path d="M124.183 20.1102H123.772C123.571 20.1102 123.395 20.0232 123.242 19.8493C123.126 19.7096 123.065 19.4935 123.065 19.1984V17.4064H122.691V16.8134H123.065V15.7909H123.737V16.8055H124.18V17.4037H123.737V19.0982C123.737 19.2616 123.769 19.3723 123.83 19.4277C123.893 19.483 124.009 19.512 124.18 19.512V20.1049L124.183 20.1102Z" fill="#231815"/>
  </mask>
  <g mask="url(#mask0_918_133)">
    <rect x="0.733032" width="123.597" height="23.9816" fill="#AAAAAA"/>
  </g>
</svg>