<?xml version="1.0" standalone="no"?>
<!DOCTYPE svg PUBLIC "-//W3C//DTD SVG 20010904//EN"
 "http://www.w3.org/TR/2001/REC-SVG-20010904/DTD/svg10.dtd">
<svg version="1.0" xmlns="http://www.w3.org/2000/svg"
 width="300.000000pt" height="31.000000pt" viewBox="0 0 300.000000 31.000000"
 preserveAspectRatio="xMidYMid meet">

<g transform="translate(0.000000,31.000000) scale(0.100000,-0.100000)"
fill="gray" stroke="none">
<path d="M2461 303 c-1 -7 -8 -13 -16 -13 -10 0 -15 -10 -15 -29 0 -62 65 -67
72 -6 3 28 1 35 -13 35 -10 0 -20 6 -22 13 -4 10 -6 10 -6 0z m17 -55 c-2 -13
-7 -23 -13 -23 -5 0 -11 10 -13 23 -2 15 2 22 13 22 11 0 15 -7 13 -22z" fill="gray"/>
<path d="M692 279 c-47 -24 -82 -78 -82 -126 0 -72 72 -143 144 -143 55 0 108
33 104 63 -3 25 -43 36 -61 18 -34 -34 -117 12 -117 64 0 32 41 75 72 75 13
-1 34 -7 48 -14 52 -29 84 26 34 59 -42 28 -93 29 -142 4z" fill="gray"/>
<path d="M2315 284 c-9 -9 -13 -24 -10 -34 4 -12 0 -20 -12 -23 -17 -4 -17 -5
1 -6 15 -1 17 -6 12 -35 -7 -39 10 -59 46 -54 20 3 23 9 23 42 0 30 5 41 20
47 19 7 19 8 -3 8 -19 1 -21 5 -16 25 4 18 1 27 -14 35 -26 14 -28 14 -47 -5z
m45 -18 c0 -8 -5 -18 -11 -22 -14 -8 -33 11 -25 25 10 16 36 13 36 -3z m-10
-56 c0 -5 -4 -10 -10 -10 -5 0 -10 5 -10 10 0 6 5 10 10 10 6 0 10 -4 10 -10z
m7 -31 c14 -14 6 -39 -12 -39 -18 0 -28 17 -21 35 6 18 18 19 33 4z" fill="gray"/>
<path d="M214 260 c-59 -48 -214 -198 -214 -209 0 -11 28 -41 39 -41 4 0 58
48 120 106 69 65 119 104 129 102 14 -3 17 -18 20 -93 3 -99 16 -124 54 -104
18 10 19 20 16 116 -3 101 -4 106 -31 129 -39 34 -85 32 -133 -6z" fill="gray"/>
<path d="M488 279 c-16 -9 -18 -26 -18 -124 0 -90 3 -117 16 -129 12 -12 20
-13 35 -6 17 10 19 22 19 128 0 135 -9 157 -52 131z" fill="gray"/>
<path d="M977 279 c-33 -19 -47 -64 -47 -153 0 -64 4 -88 16 -100 37 -37 53
-9 56 99 4 116 16 121 102 38 144 -139 164 -155 186 -143 11 6 20 18 20 28 0
16 -176 189 -229 224 -29 20 -77 23 -104 7z" fill="gray"/>
<path d="M1414 276 c-12 -32 0 -61 28 -64 34 -4 54 27 38 58 -12 23 -58 27
-66 6z m50 -11 c7 -20 -3 -45 -19 -45 -16 0 -26 25 -19 45 4 8 12 15 19 15 7
0 15 -7 19 -15z" fill="gray"/>
<path d="M1510 235 c0 -30 5 -55 10 -55 6 0 10 25 10 55 0 30 -4 55 -10 55 -5
0 -10 -25 -10 -55z" fill="gray"/>
<path d="M1598 283 c36 -4 42 -7 42 -27 0 -30 -10 -39 -27 -24 -10 8 -17 8
-21 1 -4 -6 -16 -13 -27 -16 -11 -2 12 -5 50 -6 47 0 65 2 55 9 -9 6 -14 21
-12 40 l4 30 -54 -2 c-50 -1 -51 -2 -10 -5z" fill="gray"/>
<path d="M1705 283 c34 -8 36 -18 11 -56 -25 -36 -21 -52 4 -22 12 14 15 14
30 0 26 -24 36 -18 12 8 -15 16 -18 27 -12 37 19 29 11 40 -27 39 -22 -1 -29
-3 -18 -6z" fill="gray"/>
<path d="M1790 210 c0 -47 4 -80 10 -80 6 0 10 33 10 80 0 47 -4 80 -10 80 -6
0 -10 -33 -10 -80z" fill="gray"/>
<path d="M1852 263 c3 -25 7 -28 46 -31 25 -2 42 1 42 7 0 6 -16 11 -35 11
-28 0 -35 4 -35 20 0 11 -5 20 -11 20 -6 0 -9 -12 -7 -27z" fill="gray"/>
<path d="M2010 272 c0 -10 -7 -28 -16 -40 -17 -25 -4 -31 16 -7 12 14 15 14
31 -1 11 -10 19 -12 19 -7 0 6 -7 13 -15 17 -8 3 -15 17 -15 31 0 14 -4 25
-10 25 -5 0 -10 -8 -10 -18z" fill="gray"/>
<path d="M2080 235 c0 -30 5 -55 10 -55 6 0 10 13 10 29 0 16 6 32 13 35 10 5
10 7 0 12 -7 3 -13 12 -13 20 0 8 -4 14 -10 14 -5 0 -10 -25 -10 -55z" fill="gray"/>
<path d="M2152 278 c-32 -32 2 -79 43 -60 14 7 25 16 25 22 0 5 5 10 10 10 6
0 10 -9 10 -20 0 -11 5 -20 10 -20 6 0 10 18 10 40 0 22 -4 40 -10 40 -5 0
-10 -7 -10 -15 0 -8 -4 -15 -9 -15 -5 0 -14 7 -21 15 -15 18 -42 19 -58 3z
m43 -28 c0 -13 -6 -25 -12 -27 -16 -6 -27 21 -19 43 9 23 31 11 31 -16z" fill="gray"/>
<path d="M2520 250 c0 -22 5 -40 10 -40 6 0 10 6 10 14 0 8 6 17 13 20 10 5
10 7 0 12 -7 3 -13 12 -13 20 0 8 -4 14 -10 14 -5 0 -10 -18 -10 -40z" fill="gray"/>
<path d="M2600 267 c0 -12 -7 -33 -16 -45 -8 -12 -11 -22 -5 -22 5 0 14 7 19
16 8 14 10 14 21 0 8 -9 18 -16 24 -16 5 0 2 9 -9 21 -10 12 -17 32 -16 45 2
13 -1 24 -7 24 -6 0 -11 -10 -11 -23z" fill="gray"/>
<path d="M2670 208 c0 -91 17 -98 20 -8 3 75 2 90 -10 90 -6 0 -10 -34 -10
-82z"/>
<path d="M2732 278 c-28 -28 -1 -75 37 -63 10 3 22 12 25 20 8 22 26 18 26 -5
0 -11 5 -20 10 -20 6 0 10 18 10 40 0 22 -4 40 -10 40 -5 0 -10 -7 -10 -15 0
-8 -4 -15 -9 -15 -5 0 -14 7 -21 15 -15 18 -42 19 -58 3z m43 -28 c0 -27 -22
-39 -31 -16 -8 22 3 49 19 43 6 -2 12 -14 12 -27z" fill="gray"/>
<path d="M2860 260 c0 -19 7 -33 20 -40 19 -10 20 -9 9 8 -17 27 -5 50 28 55
20 3 16 4 -14 6 -41 1 -43 0 -43 -29z" fill="gray"/>
<path d="M2962 235 c1 -33 3 -47 5 -30 3 16 10 33 16 37 9 6 9 10 1 16 -6 4
-14 14 -17 22 -3 8 -5 -12 -5 -45z" fill="gray"/>
<path d="M1857 213 c18 -2 50 -2 70 0 21 2 7 4 -32 4 -38 0 -55 -2 -38 -4z" fill="gray"/>
<path d="M1582 188 c-31 -31 9 -71 53 -54 31 11 10 66 -25 66 -9 0 -21 -5 -28
-12z m45 -14 c8 -21 -13 -42 -28 -27 -13 13 -5 43 11 43 6 0 13 -7 17 -16z" fill="gray"/>
<path d="M1866 184 c-19 -19 -20 -26 -4 -42 18 -18 56 -14 68 7 7 15 6 23 -6
35 -20 20 -38 20 -58 0z m48 -10 c7 -19 -1 -34 -19 -34 -18 0 -28 17 -21 35 7
20 32 19 40 -1z" fill="gray"/>
<path d="M1441 163 c-1 -33 -1 -33 47 -32 l47 2 -40 6 c-31 5 -41 11 -46 31
-6 23 -7 22 -8 -7z" fill="gray"/>
<path d="M2012 163 c3 -26 7 -28 48 -29 39 -1 40 -1 8 3 -32 4 -38 8 -38 29 0
13 -5 24 -11 24 -6 0 -9 -12 -7 -27z" fill="gray"/>
<path d="M2170 160 c0 -29 2 -30 45 -30 43 0 45 1 45 30 0 17 -4 30 -10 30 -5
0 -10 -4 -10 -10 0 -5 -11 -10 -25 -10 -14 0 -25 5 -25 10 0 6 -4 10 -10 10
-5 0 -10 -13 -10 -30z m70 -10 c0 -5 -11 -10 -25 -10 -14 0 -25 5 -25 10 0 6
11 10 25 10 14 0 25 -4 25 -10z" fill="gray"/>
<path d="M2452 163 c3 -25 7 -28 46 -31 41 -3 42 -2 42 27 0 17 -4 31 -10 31
-5 0 -10 -4 -10 -10 0 -5 -11 -10 -25 -10 -14 0 -25 5 -25 10 0 6 -5 10 -11
10 -6 0 -9 -12 -7 -27z m68 -13 c0 -5 -11 -10 -25 -10 -14 0 -25 5 -25 10 0 6
11 10 25 10 14 0 25 -4 25 -10z" fill="gray"/>
<path d="M2750 162 c0 -31 1 -32 45 -32 43 0 45 1 45 30 0 17 -4 30 -10 30 -5
0 -10 -4 -10 -10 0 -14 -43 -13 -58 2 -9 9 -12 5 -12 -20z m70 -12 c0 -5 -11
-10 -24 -10 -14 0 -28 5 -31 10 -4 6 7 10 24 10 17 0 31 -4 31 -10z" fill="gray"/>
<path d="M2891 163 c-1 -33 -1 -33 47 -32 l47 2 -40 6 c-31 5 -41 11 -46 31
-6 23 -7 22 -8 -7z" fill="gray"/>
<path d="M1551 64 c0 -11 3 -14 6 -6 3 7 2 16 -1 19 -3 4 -6 -2 -5 -13z" fill="gray"/>
<path d="M1692 55 c0 -16 2 -22 5 -12 2 9 2 23 0 30 -3 6 -5 -1 -5 -18z" fill="gray"/>
<path d="M1742 50 c0 -19 2 -27 5 -17 2 9 2 25 0 35 -3 9 -5 1 -5 -18z" fill="gray"/>
<path d="M2252 50 c0 -19 2 -27 5 -17 2 9 2 25 0 35 -3 9 -5 1 -5 -18z" fill="gray"/>
<path d="M2522 50 c0 -19 2 -27 5 -17 2 9 2 25 0 35 -3 9 -5 1 -5 -18z" fill="gray"/>
<path d="M2751 54 c-6 -15 -10 -29 -7 -31 2 -2 7 5 11 18 6 17 9 19 16 8 5 -8
9 -9 9 -4 0 6 -4 16 -8 23 -6 9 -12 5 -21 -14z" fill="gray"/>
<path d="M2352 45 c0 -17 2 -22 5 -12 2 9 2 23 0 30 -3 6 -5 -1 -5 -18z" fill="gray"/>
<path d="M2622 45 c0 -17 2 -22 5 -12 2 9 2 23 0 30 -3 6 -5 -1 -5 -18z" fill="gray"/>
<path d="M1460 45 c0 -8 2 -15 4 -15 2 0 6 7 10 15 3 8 1 15 -4 15 -6 0 -10
-7 -10 -15z" fill="gray"/>
<path d="M1761 43 c0 -13 2 -14 6 -4 5 11 7 11 14 0 7 -11 9 -10 9 4 0 9 -7
17 -15 17 -8 0 -15 -8 -14 -17z" fill="gray"/>
<path d="M2202 46 c7 -8 15 -12 17 -11 5 6 -10 25 -20 25 -5 0 -4 -6 3 -14z" fill="gray"/>
<path d="M2271 43 c-1 -14 5 -23 14 -23 9 0 15 9 14 23 0 21 -1 21 -8 2 l-8
-20 -5 20 c-5 18 -6 18 -7 -2z" fill="gray"/>
<path d="M2381 44 c0 -11 3 -14 6 -6 3 7 2 16 -1 19 -3 4 -6 -2 -5 -13z" fill="gray"/>
<path d="M2544 41 c1 -17 26 -28 26 -11 0 6 -4 9 -9 5 -5 -3 -11 0 -14 7 -2 9
-4 8 -3 -1z" fill="gray"/>
<path d="M2819 32 c-3 -20 -2 -29 4 -23 5 5 7 19 5 32 -3 20 -5 19 -9 -9z" fill="gray"/>
<path d="M2841 44 c0 -11 3 -14 6 -6 3 7 2 16 -1 19 -3 4 -6 -2 -5 -13z" fill="gray"/>
<path d="M2881 43 c0 -13 2 -14 6 -4 5 11 7 11 14 0 7 -11 9 -10 9 4 0 9 -7
17 -15 17 -8 0 -15 -8 -14 -17z" fill="gray"/>
<path d="M1671 34 c0 -11 3 -14 6 -6 3 7 2 16 -1 19 -3 4 -6 -2 -5 -13z" fill="gray"/>
<path d="M1830 41 c0 -6 4 -13 10 -16 6 -3 7 1 4 9 -7 18 -14 21 -14 7z" fill="gray"/>
<path d="M1930 41 c0 -10 19 -25 25 -20 1 2 -3 10 -11 17 -8 7 -14 8 -14 3z" fill="gray"/>
<path d="M1970 41 c0 -6 4 -13 10 -16 6 -3 7 1 4 9 -7 18 -14 21 -14 7z" fill="gray"/>
<path d="M2920 41 c0 -6 4 -13 10 -16 6 -3 7 1 4 9 -7 18 -14 21 -14 7z" fill="gray"/>
<path d="M2973 35 c-3 -9 -3 -18 -1 -21 3 -3 8 4 11 16 6 23 -1 27 -10 5z" fill="gray"/>
<path d="M2415 30 c3 -5 8 -10 11 -10 2 0 4 5 4 10 0 6 -5 10 -11 10 -5 0 -7
-4 -4 -10z" fill="gray"/>
</g>
</svg>
