<?xml version="1.0" standalone="no"?>
<!DOCTYPE svg PUBLIC "-//W3C//DTD SVG 20010904//EN"
 "http://www.w3.org/TR/2001/REC-SVG-20010904/DTD/svg10.dtd">
<svg version="1.0" xmlns="http://www.w3.org/2000/svg"
 width="187.000000pt" height="187.000000pt" viewBox="0 0 187.000000 187.000000"
 preserveAspectRatio="xMidYMid meet">

<g transform="translate(0.000000,187.000000) scale(0.100000,-0.100000)"
fill="black" stroke="none">
<path d="M170 752 l0 -138 84 -82 84 -82 201 0 201 0 0 -75 0 -75 -127 0 -128
0 80 -80 80 -80 70 0 c95 0 151 27 183 90 18 37 22 61 22 140 0 122 -22 173
-90 208 -42 21 -56 22 -262 22 l-218 0 0 65 0 65 285 0 285 0 0 80 0 80 -375
0 -375 0 0 -138z" fill ="white"/>
</g>
</svg>
