<svg xmlns="http://www.w3.org/2000/svg" width="173" height="40" viewBox="0 0 173 40" fill="none">
  <path d="M160.178 1.6781C160.318 1.79529 160.464 1.91716 160.604 2.03435C161.303 2.61091 161.832 3.31404 162.114 4.17654C162.395 5.03435 162.489 5.92966 162.292 6.8156C161.987 8.20779 161.2 9.28591 160.004 10.064C159.414 10.4531 158.767 10.6734 158.059 10.7578C157.482 10.8281 156.906 10.8422 156.348 10.7297C155.537 10.5656 154.797 10.2234 154.164 9.67029C153.559 9.1406 153.076 8.51248 152.743 7.7906C152.551 7.3781 152.425 6.91873 152.411 6.44998C152.397 5.9906 152.35 5.52654 152.411 5.07654C152.523 4.24685 152.851 3.49216 153.372 2.82654C153.718 2.38123 154.108 1.9781 154.59 1.6781C155.298 1.15779 156.404 0.787476 157.37 0.787476C158.261 0.787476 159.428 1.10154 160.168 1.6781H160.178ZM155.589 5.73748C155.565 6.73591 156.292 7.53279 157.239 7.57029C158.218 7.60779 159.179 6.87185 159.179 5.79841C159.179 4.80935 158.392 4.05466 157.393 4.00779C156.339 3.95623 155.561 4.85154 155.584 5.73748H155.589Z" fill="gray"/>
  <path d="M137.847 1.90781C138.306 2.37656 138.77 2.84063 139.234 3.30469C139.764 3.83437 140.298 4.36406 140.828 4.89844C141.503 5.57812 142.178 6.2625 142.853 6.94687C142.909 7.00312 142.956 7.06875 143.031 7.15781C142.131 7.86094 141.25 8.55469 140.345 9.2625C138.953 7.8 137.561 6.3375 136.145 4.85156C135.4 5.55 134.748 6.31875 134.05 7.04531C133.351 7.77187 132.653 8.49844 131.926 9.25312C131.017 8.56875 130.131 7.90312 129.24 7.2375C129.268 7.18594 129.278 7.15313 129.301 7.13438C130.436 5.96719 131.565 4.8 132.704 3.6375C133.286 3.04219 133.881 2.45156 134.467 1.86094C134.514 1.80938 134.551 1.74844 134.589 1.6875C135.128 1.18125 136 0.09375 136 0.09375C136 0.09375 137.79 1.85625 137.851 1.91719L137.847 1.90781Z" fill="gray"/>
  <path d="M147.751 10.7812V13.6922H137.828C137.748 13.9547 137.795 14.2031 137.79 14.4469C137.786 14.6859 137.79 14.925 137.79 15.1922H146.092V21.6C144.254 21.6 142.417 21.6 140.579 21.6C138.737 21.6 136.9 21.6 135.062 21.6C133.225 21.6047 131.387 21.5766 129.536 21.6234V22.5609C130.656 22.5609 131.757 22.5609 132.864 22.5609C133.97 22.5609 135.081 22.5609 136.187 22.5609C137.293 22.5609 138.404 22.5609 139.511 22.5609C140.617 22.5609 141.728 22.5609 142.834 22.5609H146.176V25.2609C145.951 25.3266 126.451 25.3313 126.156 25.2609V18.8719C128.936 18.8719 131.692 18.8719 134.453 18.8719C137.214 18.8719 139.97 18.8719 142.754 18.8719V17.9578H126.161V15.1969H134.401V13.7438C134.401 13.7438 134.387 13.7297 134.382 13.725C134.373 13.7203 134.368 13.7109 134.359 13.7062C134.35 13.7062 134.34 13.7063 134.331 13.7016C134.298 13.7016 134.27 13.7016 134.237 13.7016C131.007 13.7016 127.778 13.7016 124.548 13.6969C124.539 13.6969 124.529 13.6875 124.487 13.6688V10.7859H147.765L147.751 10.7812Z" fill="gray"/>
  <path d="M1.73562 6.84375V3.96094H14.2091C14.2231 4.425 14.2091 4.89844 14.2137 5.37188C14.2137 5.85 14.2137 6.33281 14.2137 6.81094C14.2137 7.30312 14.2137 7.79062 14.2137 8.28281C14.2137 8.76094 14.2137 9.24375 14.2137 9.72187C14.2137 10.2 14.2137 10.6781 14.2137 11.1844H15.0809C15.0809 12.1547 15.0809 13.0969 15.0809 14.0344C14.8559 14.1094 1.53406 14.1375 0.924683 14.0719V11.2078H4.41218V8.8875H7.80125V11.1844H10.8153V6.85313C7.79656 6.825 4.7825 6.83437 1.73093 6.84844L1.73562 6.84375Z" fill="gray"/>
  <path d="M90.3622 4.12499V7.26093H88.6185C88.6935 7.6078 88.7685 7.91717 88.82 8.23124C88.8669 8.52655 88.9091 8.82186 88.9231 9.12186C88.9513 9.75936 88.806 10.3734 88.595 10.9734C88.281 11.864 87.6997 12.5578 86.9732 13.1391C86.4294 13.575 85.82 13.8797 85.1497 14.0391C84.6903 14.1469 84.2122 14.1891 83.7247 14.1609C83.0966 14.1234 82.4966 13.9734 81.9153 13.7531C81.7653 13.6969 81.6294 13.5891 81.4888 13.5047C80.556 12.9328 79.8482 12.1641 79.4122 11.1562C79.1732 10.6078 79.0419 10.0406 79.0607 9.4453C79.0747 8.9203 79.1122 8.39061 79.145 7.86561C79.145 7.81874 79.1825 7.77655 79.1966 7.72968C79.2435 7.59374 79.2903 7.4578 79.3419 7.29374C79.0325 7.23749 78.756 7.2703 78.4794 7.26561C78.2075 7.26093 77.9356 7.26561 77.645 7.26561V4.1578H82.3091C82.3419 3.39374 82.3044 2.64843 82.3325 1.89374H85.6466C85.6981 2.64374 85.6278 3.37968 85.6935 4.13436H90.3575L90.3622 4.12499ZM83.9263 10.95C84.9247 10.9359 85.6747 10.2703 85.7075 9.22499C85.7357 8.35311 84.9997 7.55155 83.9638 7.50468C83.0966 7.46718 82.2294 8.16093 82.2247 9.30936C82.2247 10.1437 83.1903 11.0344 83.9216 10.95H83.9263Z" fill="gray"/>
  <path d="M37.6091 7.37345C39.8497 8.76563 42.0903 10.1578 44.3309 11.55C44.3919 11.5875 44.4575 11.625 44.5138 11.6672C44.6778 11.7844 44.6825 11.8359 44.5372 11.9859C43.8481 12.6938 43.1544 13.4016 42.4606 14.1141C42.4091 14.1656 42.3528 14.2125 42.2825 14.2781C41.9028 14.0297 41.5325 13.7859 41.1575 13.5422C39.7747 12.6234 38.3966 11.7047 37.0138 10.7859C36.8075 10.65 36.7747 10.6453 36.5731 10.7953C35.6122 11.4984 34.6559 12.2016 33.695 12.9047C33.0388 13.3828 32.3778 13.8563 31.7122 14.3391C30.8028 13.4906 29.9122 12.6609 29.0075 11.8219C29.2559 11.6625 29.5044 11.5031 29.7528 11.3438C30.5825 10.8047 31.4122 10.2609 32.2419 9.7172C33.2638 9.05157 34.2856 8.38595 35.3075 7.71564C35.4716 7.60782 35.6309 7.48595 35.7903 7.37345C35.8138 7.35001 35.8419 7.32657 35.8653 7.29845C35.8372 7.28438 35.8138 7.27032 35.7856 7.25626C34.1966 7.25626 32.6122 7.25626 31.0231 7.25626C30.9106 7.25626 30.7981 7.25626 30.6716 7.25626V4.1672C30.9247 4.09688 42.2544 4.06407 43.0794 4.12501C43.1497 4.33595 43.1684 6.72657 43.1075 7.23282C41.2747 7.25157 39.4419 7.27032 37.6044 7.28907C37.5763 7.28907 37.5481 7.28907 37.52 7.29376C37.5481 7.32188 37.5716 7.35001 37.5997 7.37345H37.6091Z" fill="gray"/>
  <path d="M48.3715 15.5391V18.5672H38.4294V22.1625H35.0497C35.0169 21.7828 35.0403 21.3891 35.0356 21C35.0356 20.6016 35.0356 20.2078 35.0356 19.8094V18.5859H25.084V15.5391H48.3762H48.3715Z" fill="gray"/>
  <path d="M74.8372 9.53905V12.4406H72.2497C72.2497 13.1297 72.2497 13.7906 72.2497 14.4515C72.2497 15.1265 72.2497 15.8062 72.2497 16.4812C72.2497 17.1562 72.2497 17.8172 72.2497 18.4828C72.2497 19.1578 72.2497 19.8375 72.2497 20.5125V22.5515C71.045 22.5515 69.8731 22.5515 68.6731 22.5515V4.19061H72.245V9.53436H74.8372V9.53905Z" fill="gray"/>
  <path d="M97.6372 15.7172V22.3781H94.2668V18.7265C94.234 18.6937 94.2247 18.6844 94.2153 18.675C94.2059 18.6703 94.2012 18.6609 94.1918 18.6562C94.1731 18.6469 94.1497 18.6422 94.1309 18.6422C94.0887 18.6422 94.0465 18.6422 94.0043 18.6422C88.82 18.6422 83.6356 18.6375 78.4512 18.6328C78.4418 18.6328 78.4325 18.6281 78.3997 18.6187V15.7218H97.6372V15.7172Z" fill="gray"/>
  <path d="M172.257 19.5328V22.4437H151.712V16.9547H155.073V19.5328H172.253H172.257Z" fill="gray"/>
  <path d="M13.6279 25.0969C13.07 25.1578 12.5075 25.0219 11.9638 24.8531C11.4716 24.6984 11.031 24.4031 10.6279 24.0844C10.0419 23.6203 9.57785 23.0531 9.21691 22.3922C8.94504 21.8906 8.79973 21.3516 8.72473 20.8125C8.65442 20.3109 8.67317 19.7859 8.76692 19.2703C8.96379 18.1969 9.47004 17.2875 10.2388 16.5328C10.9372 15.8484 11.781 15.4125 12.7513 15.2578C13.9372 15.0703 15.0763 15.2016 16.1404 15.7828C17.1482 16.3313 17.8794 17.1422 18.3107 18.2016C18.47 18.5953 18.6575 18.9938 18.62 19.4438C18.6107 19.5703 18.6857 19.7016 18.6904 19.8328C18.695 20.1422 18.6904 20.4563 18.6669 20.7656C18.6529 20.9625 18.6154 21.1641 18.5544 21.3563C18.456 21.6797 18.3575 22.0078 18.2169 22.3125C17.7482 23.3109 16.9794 24.0281 16.0232 24.5484C15.2872 24.9469 14.5044 25.1625 13.6325 25.0969H13.6279ZM15.4654 20.1984C15.4747 19.8375 15.4091 19.4953 15.1888 19.1953C14.9029 18.8016 14.5279 18.5203 14.0685 18.4078C13.2763 18.2203 12.3294 18.6 12.0388 19.5141C11.8654 20.0484 11.87 20.6016 12.1982 21.1172C12.5779 21.7172 13.3794 22.0547 14.0638 21.8859C14.87 21.6844 15.47 20.9813 15.4654 20.2031V20.1984Z" fill="gray"/>
  <path d="M117.967 4.19061H121.323V22.3125H117.967V4.19061Z" fill="gray"/>
  <path d="M61.5012 7.07811H52.3653V4.22342C52.6044 4.1578 64.2669 4.13436 64.8669 4.20467V14.1797H61.5012C61.5012 12.9937 61.5012 11.8078 61.5012 10.6219C61.5012 9.43592 61.5012 8.27342 61.5012 7.07811Z" fill="gray"/>
  <path d="M58.1825 15.9562H65.6872V18.8672H51.5778V15.9515H54.8263V11.0062H58.1825V15.9562Z" fill="gray"/>
  <path d="M114.034 14.1187H110.678V7.09218H102.418V4.19061H114.015C114.076 4.41093 114.095 13.6406 114.034 14.1187Z" fill="gray"/>
  <path d="M164.434 11.2593V14.1093H159.067V16.6265H155.678V14.1234C153.887 14.0718 152.115 14.0906 150.315 14.1093V11.2593H164.439H164.434Z" fill="gray"/>
  <path d="M168.883 14.0765V10.3546H165.283V7.4437H168.868V4.12964H172.253V14.0718H168.883V14.0765Z" fill="gray"/>
  <path d="M18.006 4.15778H21.606V7.43903H24.1841C24.2544 7.68278 24.2732 9.61871 24.2169 10.3265C23.3638 10.364 22.5013 10.3218 21.606 10.35V14.0859H18.0013V4.15778H18.006Z" fill="gray"/>
  <path d="M100.215 10.3219C100.093 10.3313 99.9716 10.35 99.8497 10.35C99.1325 10.35 98.4107 10.35 97.6513 10.35C97.6466 11.5922 97.6419 12.7969 97.6325 14.0062C97.6138 14.0297 97.5997 14.0531 97.581 14.0766C97.52 14.0859 97.4591 14.1094 97.4028 14.1094C96.4232 14.1094 95.4388 14.1141 94.4591 14.1141C94.4075 14.1141 94.356 14.1094 94.3091 14.1047C94.2435 13.7953 94.2528 4.36406 94.3232 4.125H97.656V7.41094H100.272V10.2469C100.253 10.2703 100.239 10.2937 100.22 10.3172L100.215 10.3219Z" fill="gray"/>
  <path d="M5.06845 35.0813H4.24344V34.3359H5.99189V37.0594C5.12001 37.4719 4.20595 37.7156 3.23563 37.575C2.32157 37.4438 1.67001 36.9047 1.25751 36.0797C0.93407 35.4281 0.821573 34.7156 0.934073 34.0266C1.14501 32.7328 1.87626 31.6172 3.50282 31.3828C3.90126 31.3266 4.28095 31.3547 4.6747 31.4438C5.04032 31.5234 5.37314 31.6406 5.72001 31.8234C5.63563 32.0156 5.56532 32.1938 5.47626 32.3625C5.38251 32.5406 5.33095 32.5313 5.13407 32.4469C4.70282 32.2641 4.27157 32.0906 3.78407 32.1328C3.29188 32.175 2.87939 32.3672 2.55126 32.7281C1.81064 33.5391 1.61844 34.8891 2.25126 35.9063C2.87001 36.9 4.03719 37.0078 4.83876 36.6375C4.97001 36.5766 5.0497 36.4922 5.07782 36.3422C5.1247 36.1172 5.13876 35.4703 5.06845 35.0813Z" fill="gray"/>
  <path d="M23.6919 36.7641C24.2169 36.7453 24.7372 36.7266 25.2622 36.7078C25.3653 36.7078 25.4684 36.7078 25.5715 36.7125C25.6512 36.7172 25.67 36.7266 25.7169 36.7313C26.4059 36.8203 26.645 37.186 26.7153 37.6219C26.7715 37.9781 26.7012 38.2828 26.495 38.5641C26.4247 38.6625 26.4106 38.6813 26.2325 38.7844C25.7169 39.0938 25.1731 39.0938 24.6434 39.0938C24.0715 39.0938 23.4528 38.8359 22.9325 38.6438C23.0731 38.4281 23.1434 38.3156 23.2465 38.1703C23.2794 38.1188 23.3497 38.1 23.4059 38.1188C23.6309 38.2031 23.8465 38.2875 24.0669 38.3625C24.3997 38.4797 24.7465 38.475 25.0887 38.4609C25.5294 38.4422 25.7872 38.1844 25.8153 37.7344C25.8153 37.6922 25.8012 37.6453 25.7684 37.6172C25.5669 37.4344 25.3137 37.3688 25.0372 37.3828C24.695 37.4016 24.3575 37.4625 24.0153 37.4719C24.0012 37.4719 23.9872 37.4719 23.9731 37.4719C22.759 37.4813 22.5715 36.8766 23.5512 36.1594C23.5653 36.15 23.5747 36.1406 23.5887 36.1313C23.5325 36.061 23.4809 36.0047 23.434 35.9391C23.27 35.7141 23.1012 35.6016 22.9512 35.2688C22.9231 35.2031 22.8715 35.1047 22.8622 35.0297C22.8481 34.8844 22.834 34.7438 22.834 34.5984C22.834 33.9047 23.1669 33.3891 23.8231 33.1359C24.1981 32.9906 24.5965 32.9344 25.0044 33.0375C25.2106 33.0891 25.4309 33.1125 25.6465 33.1266C25.7075 33.1313 25.7825 33.0844 25.834 33.0422C25.9278 32.9578 26.0028 32.8594 26.1059 32.7469C26.2887 32.9203 26.4669 33.0891 26.659 33.2719C26.5137 33.3844 26.3919 33.4781 26.2512 33.586C26.3825 33.9469 26.4434 34.3172 26.4622 34.7016C26.4997 35.5031 25.8059 36.2109 24.9622 36.2672C24.5778 36.2953 24.184 36.3328 23.8325 36.5203C23.7762 36.5484 23.734 36.5906 23.6825 36.6281C23.659 36.6563 23.6403 36.6844 23.6169 36.7125C23.6403 36.7219 23.6637 36.7359 23.6872 36.7453L23.6919 36.7641ZM23.7434 34.6922C23.7106 34.8938 23.7622 35.0766 23.8653 35.2359C24.2731 35.8641 25.2669 35.7141 25.5294 35.0109C25.5294 35.0016 25.534 34.9922 25.5387 34.9828C25.684 34.5938 25.595 34.2422 25.3231 33.9422C25.0559 33.6516 24.7044 33.5906 24.3387 33.7031C23.9497 33.8203 23.7434 34.1672 23.7434 34.6922Z" fill="gray"/>
  <path d="M164.945 36.7593C165.381 36.7406 165.822 36.7031 166.257 36.7031C166.59 36.7031 166.932 36.7078 167.247 36.7922C167.861 36.9562 168.151 37.6125 167.917 38.2078C167.893 38.264 167.893 38.3297 167.865 38.3812C167.762 38.564 167.809 38.5031 167.49 38.8312C166.834 39.4828 165.343 39.4219 164.289 38.7234C164.264 38.7078 164.225 38.6828 164.172 38.6484C164.317 38.4328 164.429 38.2781 164.579 38.0531C164.706 38.1094 164.832 38.1562 164.964 38.2265C165.47 38.4281 165.967 38.4937 166.487 38.4375C166.745 38.4094 166.984 38.2781 167.097 38.0062C167.19 37.7765 167.12 37.5656 166.89 37.4672C166.576 37.3312 166.253 37.4015 165.934 37.4156C165.55 37.4344 165.165 37.4719 164.786 37.4344C164.551 37.4109 164.354 37.2375 164.27 36.9937C164.19 36.7781 164.284 36.6 164.434 36.4593C164.57 36.3328 164.725 36.225 164.856 36.1218C164.673 35.8968 164.472 35.6812 164.312 35.4468C164.115 35.1656 164.106 34.8281 164.097 34.4953C164.078 33.7968 164.818 33.0422 165.587 33.0187C165.929 33.0093 166.281 33.0187 166.609 33.0984C166.909 33.1687 167.111 33.1312 167.265 32.8687C167.279 32.8453 167.307 32.8265 167.331 32.8031C167.34 32.7984 167.35 32.7937 167.368 32.7797C167.547 32.9297 167.729 33.0844 167.945 33.2672C167.795 33.375 167.664 33.464 167.514 33.5718C167.565 33.7547 167.626 33.9468 167.668 34.1484C167.753 34.5422 167.772 34.9406 167.617 35.3156C167.425 35.7843 167.073 36.0984 166.567 36.2062C166.304 36.2625 166.037 36.2906 165.77 36.3328C165.47 36.3797 165.179 36.4406 164.936 36.6375C164.912 36.6656 164.893 36.6937 164.87 36.7218C164.893 36.7312 164.917 36.7453 164.94 36.7547L164.945 36.7593ZM164.992 34.6453C164.964 34.8468 165.053 35.0578 165.17 35.2547C165.489 35.789 166.159 35.7562 166.487 35.4515C166.825 35.1422 166.918 34.7531 166.801 34.3219C166.647 33.7312 165.906 33.4922 165.489 33.7359C165.165 33.9234 164.982 34.2187 164.987 34.6453H164.992Z" fill="gray"/>
  <path d="M9.86844 34.6125C9.37625 35.7046 8.97782 36.7359 8.37782 37.7109C8.27938 37.5328 8.19032 37.4109 8.13876 37.2703C7.62313 35.8828 7.11688 34.4953 6.60126 33.0937H7.52469C7.83875 34.0172 8.14813 34.9218 8.48094 35.8968C8.94032 34.8843 9.37625 33.9234 9.81219 32.9625C9.84032 32.9625 9.86375 32.9625 9.89188 32.9625C10.4263 33.8765 10.7403 34.8984 11.2559 35.8968C11.2934 35.7703 11.3122 35.6953 11.3403 35.6297C11.5372 35.1187 11.7434 34.6078 11.9356 34.0968C12.0341 33.839 12.1231 33.5765 12.2075 33.3187C12.2591 33.1593 12.3528 33.0796 12.5309 33.089C12.7372 33.0984 12.9388 33.089 13.1638 33.089C12.545 34.65 12.0622 36.225 11.3544 37.7531C10.7825 36.7453 10.3794 35.6953 9.86375 34.6218L9.86844 34.6125Z" fill="gray"/>
  <path d="M126.681 37.5188C126.437 37.486 126.193 37.4391 125.945 37.4156C125.814 37.4016 125.673 37.4016 125.547 37.4297C125.139 37.5188 124.736 37.5797 124.314 37.5375C123.709 37.4766 123.297 37.1485 122.982 36.661C122.682 36.1922 122.631 35.6719 122.678 35.1375C122.729 34.5328 122.959 34.0031 123.395 33.5766C124.047 32.9344 124.811 32.85 125.645 33.1406C125.715 33.1641 125.786 33.1875 125.898 33.225C125.875 32.5453 125.879 31.9172 125.879 31.275H126.732C126.742 31.3125 126.751 31.3406 126.751 31.3688C126.751 33.3375 126.751 35.3063 126.742 37.2703C126.742 37.3313 126.737 37.3969 126.732 37.4578C126.714 37.4766 126.695 37.4953 126.676 37.5141L126.681 37.5188ZM125.875 34.0031C125.753 33.9422 125.636 33.8719 125.509 33.8297C125.237 33.7313 124.961 33.6188 124.665 33.7172C124.173 33.8813 123.836 34.2047 123.667 34.6969C123.54 35.0719 123.545 35.4656 123.629 35.8266C123.742 36.3094 124.023 36.7125 124.553 36.8156C124.909 36.886 125.275 36.8672 125.626 36.7313C125.814 36.661 125.879 36.5625 125.875 36.3656C125.865 35.5875 125.875 34.8094 125.875 33.9938V34.0031Z" fill="gray"/>
  <path d="M143.818 33.3422C144.147 33.1828 144.479 33.0469 144.845 32.9859C145.29 32.9156 146.092 33.1922 146.308 33.675C146.415 33.9187 146.537 34.1812 146.542 34.439C146.57 35.4234 146.556 36.4125 146.556 37.3969C146.537 37.4203 146.518 37.4437 146.504 37.4672C146.247 37.4672 145.989 37.4672 145.698 37.4672C145.693 37.2937 145.679 37.1297 145.679 36.9656C145.679 36.2859 145.693 35.6109 145.689 34.9312C145.689 34.7344 145.656 34.5375 145.633 34.3406C145.6 34.064 145.436 33.8859 145.192 33.7781C144.751 33.5765 144.161 33.6984 143.837 34.0594C143.767 34.139 143.72 34.2562 143.711 34.364C143.687 34.6734 143.678 34.9875 143.673 35.3015C143.668 36 143.668 36.6984 143.664 37.3969C143.645 37.4203 143.631 37.4437 143.612 37.4672C143.359 37.4859 143.101 37.5047 142.825 37.5281V31.2797H143.683V33.3281C143.683 33.3281 143.701 33.375 143.711 33.3984C143.743 33.3797 143.776 33.3609 143.804 33.3422H143.818Z" fill="gray"/>
  <path d="M65.9357 35.3906C66.0622 35.6953 66.1466 35.9766 66.2825 36.225C66.5591 36.7406 67.1169 36.9703 67.6841 36.8625C67.9606 36.811 68.2278 36.7219 68.495 36.6375C68.7388 36.5578 68.7528 36.5531 68.8653 36.7547C68.931 36.8719 68.9966 36.9891 69.081 37.1485C68.8841 37.2281 68.7013 37.3125 68.5091 37.3781C67.8435 37.6125 67.1544 37.6828 66.4841 37.4485C66.0481 37.2938 65.7153 36.9656 65.4528 36.5719C65.2841 36.3235 65.2185 36.0422 65.1716 35.761C64.956 34.4953 65.5981 33.3797 66.7653 33.0656C67.2341 32.9391 67.6982 32.9485 68.1763 33.1078C68.5794 33.2438 68.9216 33.4266 69.156 33.7735C69.2591 33.9281 69.3575 34.1016 69.3856 34.2797C69.4466 34.6266 69.4653 34.9781 69.5028 35.3719C68.8794 35.3719 68.2981 35.3625 67.7169 35.3719C67.1356 35.386 66.5544 35.3156 65.9357 35.386V35.3906ZM68.6544 34.7672C68.6544 34.6828 68.6685 34.636 68.6544 34.6031C68.3731 33.9094 67.8763 33.5297 67.0935 33.7078C66.5403 33.8344 66.2263 34.2281 65.9919 34.7672H68.6544Z" fill="gray"/>
  <path d="M137.289 37.1672C137.101 37.35 136.872 37.3547 136.665 37.4156C136.173 37.5656 135.672 37.6359 135.156 37.5422C134.195 37.3594 133.576 36.6843 133.426 35.7656C133.3 34.9922 133.478 34.2609 134.012 33.6562C134.326 33.3 134.743 33.1265 135.198 33.0281C135.723 32.9109 136.234 32.9953 136.717 33.2015C137.265 33.4406 137.617 33.8672 137.701 34.4765C137.739 34.7531 137.743 35.0344 137.767 35.3531C136.6 35.3859 135.447 35.3719 134.261 35.3765C134.387 35.9578 134.523 36.4781 135.081 36.7594C135.409 36.9234 135.756 36.9375 136.103 36.8531C136.351 36.7968 136.586 36.6984 136.829 36.6187C136.895 36.6 136.965 36.5906 137.045 36.5719C137.125 36.7734 137.2 36.9609 137.279 37.1672H137.289ZM134.336 34.7578C135.212 34.7859 136.089 34.814 136.989 34.739C136.881 34.4437 136.726 34.2187 136.539 34.0031C136.136 33.539 135.1 33.5906 134.781 34.0031C134.626 34.2094 134.476 34.4203 134.322 34.6265C134.298 34.6593 134.279 34.6875 134.256 34.7203C134.279 34.7297 134.303 34.739 134.326 34.7531L134.336 34.7578Z" fill="gray"/>
  <path d="M96.0481 36.5719C96.156 36.7594 96.2591 36.9375 96.381 37.1485C96.1419 37.2422 95.9356 37.3313 95.7247 37.4063C95.1388 37.6172 94.5294 37.6313 93.9341 37.5047C93.6856 37.4531 93.4419 37.2797 93.2356 37.111C92.6919 36.661 92.4107 36.0891 92.42 35.3625C92.4294 34.711 92.5888 34.1297 93.0482 33.6563C93.5544 33.136 94.1825 32.9156 94.9091 33.0141C95.1247 33.0422 95.3497 33.0563 95.5513 33.1266C96.2872 33.3844 96.681 33.9094 96.7466 34.6875C96.8028 35.3719 96.8122 35.3719 96.1185 35.3719C95.27 35.3719 94.4263 35.3719 93.5778 35.3719C93.4982 35.3719 93.4138 35.386 93.3341 35.3906C93.32 36.361 94.1263 37.0641 95.0356 36.8625C95.3638 36.7922 95.6872 36.675 96.0481 36.5719ZM95.9872 34.7672C95.8888 34.3735 95.6825 34.1016 95.406 33.8719C95.1435 33.6516 94.8153 33.6703 94.5247 33.6656C94.0185 33.661 93.3481 34.3219 93.3528 34.7672H95.9919H95.9872Z" fill="gray"/>
  <path d="M84.8497 31.6313C84.7466 31.8891 84.6622 32.1 84.5778 32.3156C84.2872 32.3953 84.0575 32.1985 83.7997 32.161C83.6169 32.1328 83.4294 32.0906 83.2419 32.1C82.7825 32.1281 82.5106 32.3625 82.4075 32.7985C82.3559 33.0047 82.4216 33.211 82.5434 33.375C82.6325 33.4969 82.759 33.6047 82.8903 33.6797C83.2606 33.886 83.645 34.0641 84.02 34.261C84.2122 34.3641 84.4044 34.4719 84.5778 34.6078C84.9903 34.936 85.145 35.3813 85.1403 35.9016C85.1356 36.5953 84.784 37.0641 84.1934 37.3594C83.5934 37.6594 82.9559 37.65 82.3137 37.5141C82.1122 37.4719 81.9106 37.425 81.7044 37.3922C81.5309 37.3641 81.484 37.3078 81.545 37.1438C81.62 36.9422 81.7091 36.7453 81.8028 36.5297C81.8778 36.5297 81.9716 36.5016 82.0325 36.5344C82.2903 36.675 82.5809 36.7078 82.8575 36.7875C83.2372 36.9 83.5887 36.7875 83.8981 36.5953C84.3715 36.3 84.3153 35.5031 83.9778 35.2547C83.6215 34.9875 83.2231 34.8235 82.8247 34.6406C82.3044 34.4016 81.7653 34.1297 81.5966 33.5344C81.3153 32.5313 81.7044 31.6922 82.7778 31.4063C83.1856 31.2985 83.6028 31.2985 84.0153 31.4203C84.1934 31.4719 84.3809 31.486 84.5637 31.5235C84.6528 31.5422 84.7325 31.5844 84.8497 31.6266V31.6313Z" fill="gray"/>
  <path d="M110.678 35.3719H107.186C107.247 35.7891 107.373 36.136 107.598 36.4547C107.865 36.8297 108.597 36.975 109.014 36.8578C109.243 36.7922 109.464 36.7125 109.693 36.6422C109.782 36.6141 109.867 36.5906 109.989 36.5578C110.026 36.6891 110.05 36.7969 110.092 36.8953C110.129 36.9891 110.181 37.0735 110.223 37.1672C110.167 37.2094 110.134 37.2422 110.101 37.2563C109.464 37.4766 108.822 37.6453 108.137 37.5563C107.298 37.4485 106.628 36.8531 106.417 36.0328C106.168 35.0719 106.328 34.2094 107.101 33.525C107.701 32.9953 108.404 32.8782 109.168 33.0516C109.356 33.0938 109.548 33.15 109.722 33.2391C110.279 33.5297 110.584 34.0031 110.636 34.6313C110.654 34.861 110.668 35.086 110.687 35.3719H110.678ZM107.232 34.6407C107.214 34.6735 107.19 34.7016 107.172 34.7344C107.195 34.7438 107.218 34.7531 107.237 34.7672C108.114 34.8 108.99 34.8235 109.89 34.7485C109.768 34.4344 109.628 34.1672 109.389 33.9797C109.239 33.8625 109.056 33.75 108.873 33.7172C108.278 33.6047 107.781 33.7875 107.434 34.2985C107.359 34.411 107.298 34.5281 107.228 34.6453L107.232 34.6407Z" fill="gray"/>
  <path d="M116.111 34.5516C116.083 34.4859 116.045 34.425 116.026 34.3594C115.904 33.9328 115.67 33.7219 115.22 33.7219C114.953 33.7219 114.686 33.7828 114.423 33.8391C114.25 33.8766 114.081 33.9609 113.889 34.0359C113.823 33.9234 113.762 33.8203 113.701 33.7125C113.65 33.6141 113.598 33.5109 113.528 33.3703C113.692 33.3047 113.837 33.2344 113.987 33.1875C114.578 33.0047 115.173 32.9109 115.792 33.0563C116.415 33.2016 116.804 33.5719 116.898 34.2094C116.95 34.575 116.978 34.9547 116.954 35.325C116.908 36.075 117.039 36.7922 117.32 37.4813C117.339 37.5234 117.334 37.575 117.348 37.6594C117.011 37.575 116.701 37.5094 116.443 37.3172C116.256 37.1766 116.087 37.1906 115.895 37.2984C115.431 37.5563 114.934 37.6313 114.414 37.5328C113.992 37.4531 113.64 37.2516 113.453 36.8578C113.27 36.4734 113.256 36.0609 113.458 35.6719C113.725 35.1609 114.184 34.9172 114.728 34.7672C115.178 34.6453 115.628 34.6547 116.083 34.6359C116.101 34.6359 116.115 34.6359 116.134 34.6313C116.129 34.6078 116.12 34.5844 116.115 34.5563L116.111 34.5516ZM116.101 35.2828C115.815 35.2828 115.576 35.2547 115.347 35.2875C114.986 35.3438 114.643 35.475 114.381 35.7516C114.175 35.9719 114.133 36.2344 114.24 36.4969C114.353 36.7547 114.564 36.9188 114.873 36.9281C115.314 36.9422 115.67 36.7406 116.017 36.5063C116.059 36.4781 116.097 36.4031 116.101 36.3516C116.111 36.0094 116.101 35.6672 116.101 35.2828Z" fill="gray"/>
  <path d="M13.97 34.0219C13.8763 33.8016 13.7872 33.6047 13.6981 33.3938C13.7263 33.361 13.7497 33.3141 13.7825 33.3C14.3966 33.0656 15.0294 32.9063 15.6903 33.0141C16.1872 33.0985 16.656 33.2672 16.9138 33.7594C17.0685 34.0547 17.0872 34.3781 17.106 34.6922C17.1294 35.086 17.12 35.4844 17.106 35.8781C17.0919 36.2391 17.1716 36.5813 17.2841 36.9188C17.3544 37.1297 17.4294 37.3453 17.5044 37.561C17.1763 37.6266 16.9044 37.5047 16.6513 37.3547C16.4263 37.2235 16.2481 37.1813 15.9903 37.3031C15.6013 37.486 15.1888 37.6172 14.7388 37.5844C14.2044 37.5469 13.82 37.2985 13.595 36.825C13.3747 36.3656 13.4075 35.9063 13.7028 35.4985C14.0731 34.9875 14.6028 34.7485 15.2263 34.7063C15.5591 34.6828 15.8872 34.6641 16.2153 34.6406C16.2575 34.2656 16.1122 34.0125 15.7606 33.8485C15.3997 33.6797 15.0294 33.7031 14.6591 33.8016C14.4388 33.8578 14.2278 33.9422 13.9841 34.0219H13.97ZM16.2481 35.2969C15.6716 35.2453 15.3669 35.2828 14.9919 35.4094C14.6356 35.5313 14.4153 35.8031 14.3028 36.1266C14.181 36.4735 14.5044 36.8813 14.8372 36.9C15.081 36.9141 15.3388 36.9 15.5685 36.8297C16.1122 36.6703 16.2528 36.4547 16.2528 35.9016C16.2528 35.7047 16.2528 35.5078 16.2528 35.2922L16.2481 35.2969Z" fill="gray"/>
  <path d="M71.6263 35.3203C71.6169 34.725 71.7294 34.1765 72.1278 33.7031C72.395 33.389 72.7044 33.1781 73.1075 33.0703C73.6747 32.9156 74.2325 32.939 74.7528 33.1921C75.4278 33.5203 75.7747 34.0828 75.8122 34.8328C75.8169 34.9546 75.8544 35.0718 75.8731 35.1937C75.8778 35.2359 75.8872 35.2781 75.8731 35.3203C75.7794 35.6718 75.8075 36.0421 75.6669 36.3937C75.4044 37.0546 74.8935 37.364 74.2513 37.5328C73.8341 37.6453 73.4263 37.6125 73.0184 37.4953C72.5825 37.3687 72.2403 37.1109 71.9872 36.7406C71.6919 36.314 71.631 35.8218 71.6216 35.3203H71.6263ZM72.545 35.325C72.545 35.4093 72.5544 35.5218 72.545 35.6343C72.5216 35.864 72.6106 36.0609 72.6997 36.2578C72.831 36.5578 73.0747 36.8062 73.3653 36.8718C74.0591 37.0218 74.6122 36.7968 74.856 36.0093C75.0153 35.4937 75.0013 34.9593 74.8466 34.4484C74.6544 33.8109 74.1622 33.6234 73.5903 33.6656C73.2481 33.689 72.9903 33.9234 72.7888 34.2093C72.5544 34.5421 72.5216 34.9125 72.5497 35.3296L72.545 35.325Z" fill="gray"/>
  <path d="M156.348 35.3531C156.372 35.6906 156.283 36.0328 156.151 36.3609C155.856 37.1062 155.265 37.4953 154.483 37.5703C154.136 37.6031 153.756 37.6031 153.433 37.4953C153.011 37.3546 152.664 37.0593 152.415 36.6609C152.125 36.1875 152.082 35.6718 152.087 35.1421C152.087 34.7062 152.195 34.2937 152.439 33.9234C152.781 33.3984 153.25 33.0984 153.883 33.0046C154.361 32.9343 154.797 33.0281 155.218 33.1921C155.706 33.3843 156.025 33.7453 156.17 34.2703C156.268 34.6218 156.353 34.9687 156.343 35.3531H156.348ZM155.481 35.2265C155.434 34.9921 155.383 34.7578 155.345 34.5234C155.256 33.9515 154.778 33.6984 154.248 33.6515C153.789 33.6093 153.259 33.9984 153.095 34.5093C152.903 35.1093 152.87 35.7187 153.208 36.2906C153.433 36.675 153.737 36.9281 154.225 36.914C154.651 36.9 155.092 36.6375 155.237 36.2484C155.359 35.9203 155.467 35.5875 155.476 35.2265H155.481Z" fill="gray"/>
  <path d="M159.339 35.3109C159.297 34.6031 159.526 34.0171 160.028 33.5156C160.464 33.0749 160.998 32.9765 161.575 32.9859C161.936 32.9906 162.287 33.0796 162.615 33.2484C163.018 33.4593 163.258 33.8062 163.408 34.214C163.665 34.9312 163.679 35.6531 163.384 36.3703C163.075 37.1249 162.447 37.5234 161.584 37.5843C161.176 37.6124 160.797 37.5187 160.436 37.3734C160.215 37.289 160.023 37.0921 159.868 36.9046C159.479 36.4406 159.301 35.8968 159.343 35.3015L159.339 35.3109ZM160.239 35.2781C160.239 35.4234 160.229 35.5593 160.239 35.6953C160.267 36.0984 160.454 36.4218 160.773 36.6703C161.368 37.1249 162.226 36.8578 162.503 36.1593C162.723 35.6062 162.709 35.0671 162.573 34.4999C162.442 33.9609 162.081 33.7453 161.579 33.6562C161.167 33.5859 160.867 33.764 160.623 34.0593C160.333 34.4109 160.178 34.8187 160.239 35.2781Z" fill="gray"/>
  <path d="M60.1981 33.0891H60.9856V37.4719H60.1372V37.0734C60.0153 37.1344 59.9169 37.1812 59.8231 37.2328C59.4059 37.4672 58.9794 37.6219 58.4825 37.5844C57.7653 37.5281 57.3716 37.0687 57.1888 36.4734C57.1559 36.3609 57.1841 36.225 57.1841 36.1031C57.1747 35.1047 57.1653 34.1062 57.1559 33.0937H58.0278C58.0278 33.4125 58.0466 33.7219 58.0278 34.0312C57.9763 34.7203 57.9997 35.4047 58.0559 36.0937C58.0934 36.5437 58.3091 36.8156 58.7497 36.8812C59.1997 36.9516 59.5981 36.8156 59.9122 36.4781C60.0669 36.3094 60.1231 36.0984 60.1231 35.8734C60.1231 35.175 60.1231 34.4766 60.1231 33.7781C60.1231 33.5719 60.1231 33.3609 60.1278 33.1547C60.1513 33.1359 60.17 33.1172 60.1934 33.0984L60.1981 33.0891Z" fill="gray"/>
  <path d="M19.1591 37.5H18.3013V33.0281C18.6716 33.0422 18.756 33.0844 19.1825 33.4687C19.5153 33.1969 19.8997 33.0187 20.331 32.9953C20.8513 32.9672 21.3528 33.0422 21.6997 33.5015C21.8825 33.7453 21.9716 34.0265 21.981 34.3172C22.0138 35.3484 22.0185 36.3797 22.0325 37.4109C22.0325 37.439 22.0138 37.4672 22.0044 37.5H21.2075C21.1278 37.3219 21.1231 37.1391 21.1372 36.9516C21.2028 36.15 21.1888 35.3484 21.1185 34.5469C21.0575 33.8765 20.5372 33.525 19.8856 33.7219C19.7919 33.75 19.6981 33.7969 19.6091 33.8344C19.3185 33.9609 19.1544 34.1578 19.1591 34.5047C19.1731 35.3906 19.1591 36.2765 19.1544 37.1625C19.1544 37.2656 19.1544 37.3687 19.1544 37.5H19.1591Z" fill="gray"/>
  <path d="M121.895 37.5H121.042C121.042 37.0032 121.051 36.5157 121.042 36.0282C121.033 35.5079 121.023 34.9875 120.976 34.4672C120.925 33.9094 120.601 33.6563 120.043 33.6938C119.889 33.7032 119.725 33.7125 119.593 33.7782C119.265 33.9329 119.008 34.1344 119.017 34.5704C119.04 35.4235 119.017 36.2766 119.017 37.1344C119.017 37.2469 119.017 37.3594 119.017 37.4907H118.145C118.145 36 118.145 34.5141 118.145 33.0047C118.511 33.0844 118.82 33.1454 118.984 33.436C119.293 33.3 119.575 33.15 119.875 33.0469C120.283 32.9063 120.7 32.9766 121.093 33.1219C121.422 33.2438 121.623 33.5016 121.731 33.8438C121.862 34.2516 121.89 34.6688 121.89 35.0907C121.89 35.8829 121.89 36.6704 121.89 37.4954L121.895 37.5Z" fill="gray"/>
  <path d="M34.4497 33.15C34.4637 33.2203 34.4872 33.2906 34.4872 33.3562C34.4872 34.6594 34.4872 35.9625 34.4872 37.2656C34.4872 37.3359 34.4778 37.4062 34.4731 37.4953H33.6106C33.6059 37.3734 33.5966 37.2422 33.5872 37.0734C33.4184 37.1672 33.2684 37.2328 33.1325 37.3219C32.6591 37.6312 32.1341 37.6641 31.6278 37.5094C31.2434 37.3922 30.9106 37.1344 30.7606 36.7172C30.6762 36.4828 30.6528 36.2391 30.6528 35.9906C30.6528 35.0859 30.6481 34.1766 30.6434 33.2719C30.6434 33.2297 30.6481 33.1875 30.6528 33.1453C30.6762 33.1266 30.695 33.1078 30.7184 33.0891H31.5153C31.5153 33.4172 31.5387 33.7172 31.5153 34.0172C31.4497 34.7578 31.4872 35.4937 31.5481 36.2344C31.5528 36.3094 31.5856 36.3891 31.6231 36.4547C31.8669 36.8484 32.2325 36.9844 32.6637 36.8719C32.9075 36.8109 33.1372 36.6703 33.3575 36.5391C33.6153 36.3797 33.5919 36.0891 33.6012 35.8453C33.6247 35.1891 33.6106 34.5328 33.6106 33.8812C33.6106 33.6328 33.6106 33.3844 33.6106 33.0937H34.3606C34.3934 33.1125 34.4262 33.1359 34.4544 33.1547L34.4497 33.15Z" fill="gray"/>
  <path d="M40.4263 37.4813H39.5638V33.0281C39.9482 33.0047 40.2013 33.2203 40.4403 33.4828C40.7778 33.2156 41.1341 33.0188 41.5466 32.9859C42.2403 32.9297 42.8403 33.15 43.1169 33.7594C43.1825 33.9094 43.2482 34.0688 43.2528 34.2281C43.2857 35.2969 43.3044 36.3703 43.3325 37.4531C43.0185 37.5281 42.7419 37.4766 42.4372 37.4813C42.4372 37.0406 42.4372 36.6188 42.4372 36.1969C42.4372 35.7281 42.4466 35.2594 42.4232 34.7906C42.4138 34.5797 42.3575 34.3641 42.2872 34.1625C42.1935 33.8859 41.9872 33.7359 41.6872 33.7031C41.3732 33.6703 41.0872 33.7266 40.82 33.8906C40.5716 34.0406 40.4216 34.2281 40.4263 34.5422C40.4403 35.4047 40.4263 36.2719 40.4263 37.1344C40.4263 37.2375 40.4263 37.3406 40.4263 37.4813Z" fill="gray"/>
  <path d="M101.27 37.4718H100.412C100.407 37.4015 100.393 37.3218 100.393 37.2422C100.393 36.4922 100.393 35.7422 100.393 34.9922C100.393 34.6969 100.347 34.4062 100.234 34.125C100.126 33.8672 99.9387 33.7359 99.6715 33.7031C99.2731 33.6562 98.9028 33.7172 98.5981 34.0172C98.4622 34.1484 98.3919 34.289 98.3919 34.4812C98.3965 35.3672 98.3919 36.2531 98.3919 37.139C98.3919 37.2422 98.3919 37.3453 98.3919 37.4718H97.5294V33.0328C97.9137 32.9906 98.1481 33.239 98.4059 33.464C98.7715 33.1734 99.184 33.0047 99.6434 32.9906C100.22 32.9718 100.74 33.1219 101.017 33.6703C101.148 33.9281 101.209 34.2375 101.223 34.5281C101.265 35.3062 101.261 36.089 101.275 36.8672C101.275 37.064 101.275 37.2609 101.275 37.4765L101.27 37.4718Z" fill="gray"/>
  <path d="M134.261 31.4719V32.2172H132.179V37.5047H131.289V32.2313H129.259V31.4719H134.265H134.261Z" fill="gray"/>
  <path d="M151.342 37.4906H150.475C150.475 37.3172 150.465 37.1344 150.475 36.9562C150.536 36.1453 150.526 35.3344 150.451 34.5234C150.39 33.8437 149.818 33.4969 149.143 33.7453C148.637 33.9281 148.464 34.1437 148.468 34.6359C148.473 35.4187 148.483 36.1969 148.487 36.9797C148.487 37.1437 148.487 37.3125 148.487 37.4953H147.615V33.0891H148.22C148.262 33.2062 148.309 33.3328 148.37 33.5062C148.52 33.4219 148.661 33.3375 148.801 33.2578C149.293 32.9812 149.818 32.9062 150.358 33.0562C150.892 33.2062 151.183 33.5859 151.262 34.125C151.295 34.3594 151.333 34.5937 151.337 34.8281C151.347 35.3484 151.337 35.8687 151.337 36.3891C151.337 36.7406 151.337 37.0969 151.337 37.4906H151.342Z" fill="gray"/>
  <path d="M168.268 33.0891H169.056C169.272 33.6141 169.492 34.1484 169.712 34.6828C169.928 35.2125 170.139 35.7469 170.397 36.2812C170.865 35.2406 171.203 34.1625 171.629 33.0984H172.478C172.464 33.1781 172.454 33.2484 172.431 33.3141C172.234 33.8344 172.037 34.3547 171.836 34.8703C171.639 35.3672 171.428 35.8594 171.236 36.3609C171.053 36.8391 170.893 37.3312 170.706 37.8094C170.608 38.0578 170.486 38.2969 170.345 38.5219C170.289 38.6156 168.911 39.3422 168.798 39.3891C168.573 39.0469 168.695 39.225 168.456 38.7937C168.615 38.7047 168.915 38.5547 168.976 38.5172C169.22 38.3719 169.464 38.2359 169.712 38.1047C169.881 38.0156 169.933 37.8984 169.933 37.7062C169.933 37.2656 169.717 36.8953 169.581 36.5015C169.478 36.1969 169.337 35.9062 169.215 35.6109C169.075 35.2734 168.934 34.9312 168.798 34.5937C168.686 34.3172 168.559 34.0406 168.461 33.7547C168.4 33.5812 168.24 33.45 168.259 33.2437C168.264 33.1922 168.268 33.1453 168.273 33.0937L168.268 33.0891Z" fill="gray"/>
  <path d="M46.6747 33.9516C46.3935 33.8719 46.1169 33.7922 45.8356 33.7219C45.4653 33.6281 45.1794 33.75 45.006 34.0359C44.945 34.1391 44.9403 34.2047 45.0106 34.3125C45.2403 34.6687 45.5966 34.8187 45.9622 34.9641C46.3325 35.1094 46.6841 35.2781 46.9231 35.625C47.3216 36.1969 47.1528 37.1766 46.2669 37.4625C45.756 37.6312 45.2356 37.5984 44.72 37.4859C44.495 37.4391 44.2466 37.4578 44.0356 37.2281C44.12 37.0031 44.2091 36.7594 44.2935 36.5391C44.5981 36.6375 44.8653 36.7406 45.1419 36.8016C45.32 36.8437 45.5169 36.8391 45.6997 36.8344C45.8872 36.825 46.07 36.75 46.1122 36.5578C46.1591 36.3562 46.22 36.1172 46.0091 35.9531C45.8122 35.8031 45.606 35.6625 45.3903 35.5359C45.1419 35.3859 44.87 35.2687 44.6216 35.1234C44.1435 34.8422 43.9935 34.3031 44.0872 33.9187C44.195 33.4734 44.6122 33.1031 45.1091 33.0234C45.4091 32.9766 45.7091 32.9812 46.0044 33.0562C46.2341 33.1172 46.4731 33.15 46.7028 33.2016C46.7497 33.2109 46.7919 33.2531 46.8341 33.2812C46.8106 33.7031 46.7919 33.7687 46.6606 33.9516H46.6747Z" fill="gray"/>
  <path d="M142.084 33.3516C141.957 33.5719 141.85 33.7594 141.732 33.9656C141.475 33.8906 141.222 33.8062 140.959 33.7406C140.664 33.6656 140.359 33.6516 140.064 33.7594C139.557 33.9422 139.295 34.3312 139.154 34.8234C139.018 35.2969 139.061 35.7516 139.295 36.1828C139.553 36.6609 139.975 36.8719 140.5 36.8906C140.861 36.9047 141.189 36.7594 141.522 36.6422C141.597 36.6141 141.672 36.5953 141.756 36.5672C141.873 36.7969 142.065 36.9703 142.051 37.2562C141.686 37.3922 141.32 37.5 140.931 37.5281C140.734 37.5422 140.537 37.575 140.34 37.575C139.037 37.5703 138.203 36.6703 138.179 35.3625C138.165 34.5656 138.442 33.8812 139.122 33.4078C139.656 33.0375 140.247 32.9156 140.889 33.0656C141.029 33.0984 141.184 33.0656 141.32 33.1031C141.568 33.1687 141.807 33.2578 142.084 33.3469V33.3516Z" fill="gray"/>
  <path d="M78.7934 33.7875H77.87V37.4906H76.9887V33.8016C76.7497 33.7828 76.5481 33.7687 76.3231 33.75V33.0984H76.8856C77.0122 32.7141 77.0919 32.3391 77.2512 32.0062C77.4575 31.575 77.8466 31.3359 78.3294 31.3031C78.6809 31.2797 79.0325 31.3172 79.4122 31.3266C79.3466 31.5234 79.3091 31.6875 79.2387 31.8281C79.2106 31.8844 79.1075 31.9219 79.0372 31.9312C78.8919 31.95 78.7466 31.9359 78.6012 31.9453C78.2684 31.9734 78.034 32.1234 77.9403 32.4656C77.8934 32.6391 77.8137 32.8078 77.7387 33.0187C78.0997 33.075 78.4419 33.0609 78.7981 33.0937V33.7875H78.7934Z" fill="gray"/>
  <path d="M89.2513 36.5718C89.3591 36.7921 89.4575 36.9843 89.5653 37.2C89.2231 37.3828 88.8575 37.4531 88.4919 37.5187C88.0653 37.5984 87.6294 37.6125 87.2169 37.5047C86.72 37.3734 86.27 37.125 86.0028 36.6515C85.8809 36.4406 85.7778 36.2156 85.6747 35.9953C85.6559 35.9625 85.6653 35.9156 85.6653 35.8734C85.6653 35.625 85.6606 35.3718 85.6559 35.1234C85.6466 34.514 85.9138 34.0265 86.3216 33.6046C86.6966 33.2109 87.1794 33.0375 87.7138 33.0046C88.2294 32.9718 88.7309 33.0328 89.2044 33.2484C89.3122 33.2953 89.4341 33.3093 89.5794 33.3422C89.4388 33.5625 89.3169 33.7547 89.1809 33.9656C88.9091 33.8859 88.6513 33.7968 88.3841 33.7312C87.9247 33.6234 87.4934 33.6609 87.1138 33.975C86.7763 34.2515 86.6169 34.6218 86.5559 35.039C86.5419 35.1422 86.5419 35.2453 86.5372 35.3484C86.5231 35.7984 86.6966 36.1781 86.9966 36.4968C87.3481 36.8672 87.7981 36.9468 88.2809 36.8531C88.5106 36.8062 88.7309 36.7031 88.9559 36.6328C89.0497 36.6047 89.1481 36.5906 89.2466 36.5672L89.2513 36.5718Z" fill="gray"/>
  <path d="M105.873 37.2375C105.264 37.4343 104.697 37.6031 104.092 37.5796C103.014 37.5328 102.362 36.9421 102.086 36.0937C101.978 35.7609 102.029 35.3765 102.015 35.0156C102.006 34.7109 102.104 34.439 102.24 34.1671C102.658 33.3375 103.698 32.8031 104.697 33.0656C104.851 33.1078 105.02 33.1031 105.179 33.1406C105.409 33.1921 105.634 33.2625 105.897 33.3328C105.77 33.5625 105.658 33.7593 105.545 33.9562C105.198 33.8718 104.875 33.7828 104.547 33.7078C104.256 33.6421 103.956 33.6796 103.703 33.8156C103.234 34.0734 102.943 34.4718 102.897 35.0203C102.887 35.1328 102.897 35.25 102.887 35.3625C102.859 36.0421 103.201 36.5109 103.787 36.7875C104.111 36.9375 104.476 36.9187 104.823 36.7968C105.043 36.7171 105.264 36.6281 105.522 36.5296C105.69 36.7125 105.798 36.9468 105.859 37.2234L105.873 37.2375Z" fill="gray"/>
  <path d="M48.1934 33.7078H47.6169V33.1031C47.795 33.075 47.9684 33.0469 48.1513 33.0188V32.1141C48.3013 32.0719 48.4372 32.0297 48.5731 31.9922C48.7091 31.95 48.8497 31.9078 49.0231 31.8563V33.0609C49.4544 33.0844 49.8575 33.0703 50.27 33.0797V33.7078H49.0794C49.0606 33.7781 49.0372 33.825 49.0372 33.8719C49.0372 34.5281 49.0278 35.1844 49.0372 35.8406C49.0372 36.0234 49.0513 36.2109 49.0981 36.3844C49.1778 36.6703 49.4122 36.8391 49.7169 36.8438C49.9138 36.8438 50.1153 36.8438 50.3122 36.8344C50.4716 36.825 50.5513 36.9 50.57 37.0406C50.5888 37.1906 50.5888 37.3453 50.5981 37.5C50.1341 37.5656 49.7028 37.5985 49.2622 37.5328C48.7091 37.4485 48.3388 37.1344 48.2216 36.5953C48.1794 36.4078 48.1559 36.2109 48.1606 36.0188C48.1606 35.3953 48.1794 34.7672 48.1888 34.1438C48.1888 34.0125 48.1888 33.8766 48.1888 33.7078H48.1934Z" fill="gray"/>
  <path d="M62.2841 33.7172H61.7684V33.1219C61.7684 33.1219 61.8059 33.0891 61.82 33.0891C62.3356 33.0797 62.27 33.0328 62.2747 32.6063C62.2747 32.4516 62.2747 32.2969 62.2747 32.1422C62.5606 32.0438 62.8278 31.9547 63.1231 31.8516C63.1888 32.2359 63.1137 32.6297 63.1747 33.0562C63.5778 33.0984 63.995 33.0609 64.4216 33.0844V33.7078H63.1653C63.1559 33.8297 63.1466 33.9234 63.1466 34.0125C63.1466 34.6875 63.1278 35.3672 63.1513 36.0422C63.17 36.5813 63.4606 36.8531 63.9294 36.8484C64.1169 36.8484 64.3044 36.8344 64.4919 36.8484C64.5622 36.8484 64.6841 36.8906 64.6981 36.9375C64.7403 37.0828 64.7544 37.2422 64.7544 37.3969C64.7544 37.4391 64.6606 37.5188 64.6091 37.5188C64.1825 37.5328 63.7559 37.5609 63.3341 37.5281C62.9262 37.4953 62.6262 37.2375 62.4247 36.8906C62.3544 36.7641 62.3356 36.5953 62.3356 36.4453C62.3262 35.7281 62.3262 35.0109 62.3216 34.2937C62.3216 34.1109 62.3028 33.9281 62.2888 33.7266L62.2841 33.7172Z" fill="gray"/>
  <path d="M54.0856 33.7313C53.8935 33.7219 53.7388 33.7172 53.5419 33.7078C53.5231 33.5109 53.5044 33.3234 53.481 33.0891C53.6731 33.0797 53.8466 33.075 54.0575 33.0656C54.0716 32.7422 54.081 32.4281 54.095 32.1188C54.381 32.0297 54.6388 31.95 54.9294 31.8563V33.0563C55.3466 33.0984 55.7497 33.0656 56.1622 33.0891C56.1856 33.2953 56.2091 33.4875 56.2372 33.7125H54.9622C54.9481 33.8016 54.9294 33.8578 54.9294 33.9141C54.9247 34.6219 54.9153 35.3297 54.9247 36.0375C54.9247 36.1969 54.9716 36.3656 55.0372 36.511C55.1403 36.7359 55.3325 36.8531 55.5903 36.8485C55.8716 36.8485 56.1481 36.8485 56.4528 36.8485C56.481 37.0594 56.5044 37.2656 56.5325 37.4813C56.0169 37.5797 55.5153 37.6266 55.0231 37.5141C54.5872 37.4156 54.156 37.0875 54.0997 36.45C54.0388 35.7938 54.0341 35.1422 54.081 34.4859C54.0997 34.2375 54.081 33.9891 54.081 33.7313H54.0856Z" fill="gray"/>
  <path d="M157.168 31.275H158.026C158.026 31.3594 158.026 31.4297 158.026 31.5C158.026 32.8641 158.012 34.2281 158.026 35.5922C158.036 36.5016 157.937 36.2766 158.603 36.8953C158.762 37.0453 158.884 37.2 158.856 37.4344C158.833 37.636 158.786 37.6735 158.603 37.6266C158.472 37.5891 158.345 37.5516 158.214 37.5281C157.858 37.4578 157.572 37.275 157.361 36.9938C157.272 36.8766 157.215 36.7125 157.206 36.5672C157.173 36.0891 157.164 35.611 157.159 35.1328C157.154 33.8953 157.159 32.6531 157.159 31.4156C157.159 31.3735 157.159 31.336 157.164 31.2844L157.168 31.275Z" fill="gray"/>
  <path d="M28.4544 33.7921H27.545V33.075C28.131 33.075 28.7169 33.075 29.3216 33.075C29.331 33.1359 29.345 33.1828 29.345 33.2296C29.345 34.4906 29.345 35.7468 29.331 37.0078C29.331 37.3078 29.3075 37.6125 29.2794 37.9125C29.2653 38.0531 29.2138 38.1937 29.1622 38.325C29.045 38.6156 28.9044 38.7281 28.5435 38.8359C28.1169 38.9296 27.1747 39.0937 27.1747 39.0937C27.1747 39.0937 27.095 38.7281 27.0482 38.5359C27.2825 38.475 27.1935 38.4937 27.3294 38.4609C27.5169 38.4234 27.6763 38.3906 27.8497 38.3578C28.2575 38.2781 28.4403 38.0109 28.4638 37.6171C28.4778 37.3875 28.506 37.1625 28.506 36.9328C28.506 36.0187 28.5013 35.1 28.4919 34.1859C28.4919 34.0734 28.4732 33.9609 28.4638 33.7968L28.4544 33.7921Z" fill="gray"/>
  <path d="M38.2653 37.4766H37.4075V31.4625H38.2372C38.2981 31.6828 38.3215 36.975 38.2606 37.4766H38.2653Z" fill="gray"/>
  <path d="M91.5247 33.0891V37.4906H90.6669V33.7969C90.4372 33.7781 90.2309 33.7594 90.0153 33.7406V33.0891H91.5247Z" fill="gray"/>
  <path d="M51.0669 33.0937C51.156 33.0843 51.2075 33.0796 51.2591 33.075C51.6763 33.075 52.0935 33.075 52.5294 33.075V37.4906H51.7231V33.7828H51.0669V33.089V33.0937Z" fill="gray"/>
  <path d="M28.8247 32.4C28.5153 32.4 28.2669 32.1703 28.2622 31.875C28.2622 31.6453 28.4919 31.4063 28.731 31.3969C29.0638 31.3781 29.3403 31.6078 29.345 31.9078C29.3497 32.175 29.1153 32.4047 28.8247 32.4047V32.4Z" fill="gray"/>
  <path d="M91.1825 32.4C90.8684 32.4 90.6153 32.1891 90.6153 31.9266C90.6153 31.6453 90.8544 31.3828 91.0981 31.3922C91.4544 31.411 91.6981 31.6266 91.6887 31.9266C91.684 32.1985 91.4637 32.4 91.1825 32.4Z" fill="gray"/>
  <path d="M52.67 31.9125C52.6653 32.2547 52.5013 32.4047 52.1497 32.3953C51.8966 32.3907 51.6059 32.1094 51.6013 31.8703C51.6013 31.6453 51.9153 31.3875 52.1872 31.3922C52.4731 31.3922 52.67 31.6125 52.6653 31.9125H52.67Z" fill="gray"/>
  <path d="M37.609 7.37344C37.5809 7.34531 37.5575 7.31719 37.5294 7.29375C37.5575 7.29375 37.5856 7.29375 37.6137 7.28906C37.6137 7.31719 37.6137 7.34531 37.6137 7.37344H37.609Z" fill="#878586"/>
  <path d="M34.4497 33.15C34.4169 33.1312 34.3841 33.1078 34.356 33.0891C34.3888 33.1078 34.4216 33.1312 34.4497 33.15Z" fill="gray"/>
  <path d="M143.818 33.3422C143.786 33.3609 143.753 33.3797 143.725 33.3984C143.715 33.375 143.706 33.3516 143.697 33.3281C143.739 33.3281 143.781 33.3375 143.823 33.3422H143.818Z" fill="gray"/>
  <path d="M168.268 33.0891C168.264 33.1406 168.259 33.1875 168.254 33.2391C168.222 33.1828 168.118 33.1219 168.268 33.0891Z" fill="gray"/>
  <path d="M164.945 36.7593C164.922 36.75 164.898 36.7359 164.875 36.7265C164.898 36.6984 164.917 36.6703 164.94 36.6422C164.94 36.6797 164.94 36.7218 164.945 36.7593Z" fill="gray"/>
  <path d="M35.7903 7.25623C35.8184 7.27029 35.8418 7.28435 35.87 7.29841C35.8465 7.32185 35.8184 7.34529 35.795 7.37341C35.795 7.33591 35.795 7.29373 35.7903 7.25623Z" fill="gray"/>
  <path d="M23.6919 36.764C23.6685 36.7547 23.645 36.7406 23.6216 36.7312C23.645 36.7031 23.6638 36.675 23.6872 36.6469C23.6872 36.6844 23.6872 36.7265 23.6872 36.764H23.6919Z" fill="gray"/>
  <path d="M116.111 34.5516C116.115 34.575 116.125 34.5984 116.129 34.6266C116.111 34.6266 116.097 34.6266 116.078 34.6313L116.111 34.5516Z" fill="gray"/>
  <path d="M30.7138 33.0891C30.7138 33.0891 30.6716 33.1266 30.6481 33.1453C30.6716 33.1266 30.6903 33.1078 30.7138 33.0891Z" fill="gray"/>
  <path d="M146.504 37.4672C146.504 37.4672 146.542 37.4203 146.556 37.3969C146.537 37.4203 146.518 37.4437 146.504 37.4672Z" fill="gray"/>
  <path d="M126.681 37.5187C126.681 37.5187 126.718 37.4812 126.737 37.4625C126.718 37.4812 126.7 37.5 126.681 37.5187Z" fill="gray"/>
  <path d="M134.331 34.636C134.331 34.6782 134.336 34.7157 134.34 34.7579L134.27 34.725C134.293 34.6922 134.312 34.6641 134.336 34.6313L134.331 34.636Z" fill="gray"/>
  <path d="M107.233 34.636C107.233 34.6782 107.237 34.7157 107.242 34.7579C107.218 34.7485 107.195 34.7391 107.176 34.725C107.195 34.6922 107.218 34.6641 107.237 34.6313L107.233 34.636Z" fill="gray"/>
</svg>