<svg xmlns="http://www.w3.org/2000/svg" width="84" height="24" viewBox="0 0 84 24" fill="none">
  <mask id="mask0_921_414" style="mask-type:alpha" maskUnits="userSpaceOnUse" x="0" y="0" width="85" height="24">
    <path d="M12.2673 12.7237C17.7611 11.6301 20.8309 14.7518 22.4306 17.5133C23.2711 15.8616 23.7449 13.9892 23.7449 12C23.7449 11.2018 23.667 10.4197 23.521 9.66689C11.349 7.52519 7.50689 16.9552 6.30624 22.5301C7.98391 23.4679 9.91144 24 11.9623 24C15.2332 24 18.1894 22.6436 20.3246 20.4533C17.9266 12.8859 12.2673 12.7237 12.2673 12.7237Z" fill="#E8380D"/>
    <path d="M19.5945 2.85884C17.4723 6.61979 14.5031 8.37858 14.5031 8.37858C16.1548 6.35046 16.9758 3.47539 17.3782 1.34018C15.7557 0.483505 13.9158 0 11.9623 0C7.80868 0 4.15805 2.19037 2.05854 5.49703C3.76865 6.97999 7.62047 9.4397 13.893 8.79394C13.893 8.79394 7.16292 9.99784 0.757297 8.28123C0.380877 9.45268 0.179688 10.702 0.179688 12C0.179688 15.1379 1.36411 17.9935 3.29813 20.132C6.70213 8.55057 19.9839 7.85614 23.0212 7.84965C22.3138 5.89616 21.1197 4.17956 19.5945 2.8556V2.85884ZM11.5859 8.11574C10.4988 8.11574 9.61614 7.22661 9.61614 6.1298C9.61614 5.03299 10.4988 4.14386 11.5859 4.14386C12.6729 4.14386 13.5588 5.03299 13.5588 6.1298C13.5588 7.22661 12.6762 8.11574 11.5859 8.11574Z" fill="#E8380D"/>
    <path d="M77.8747 5.39956C77.8747 6.4412 78.157 7.33358 78.7184 8.07019C79.2797 8.80681 80.3928 9.18972 81.1197 9.32276L80.2435 10.0918C79.6594 10.0432 78.6178 9.85494 78.0402 9.40713C77.4658 8.95932 77.1056 8.4888 76.9628 7.99231C76.8363 8.4888 76.4793 8.95932 75.9017 9.40064C75.3241 9.84196 74.3603 10.0075 73.7762 10.0626L72.8904 9.29356C73.6237 9.16051 74.6556 8.80681 75.2138 8.0637C75.7719 7.32384 76.051 6.43471 76.051 5.39956V4.13401C76.051 3.91335 76.0672 3.31303 76.051 3.30329H77.8747C77.8747 3.30329 77.8747 3.91011 77.8747 4.13401V5.39956ZM81.3371 3.06641H83.1348C83.1348 3.06641 83.1186 13.9469 83.1348 13.9599H81.3371C81.3371 13.9599 81.3533 3.0729 81.3371 3.06641Z" fill="#231815"/>
    <path d="M43.9482 4.34506C43.9482 4.34506 40.7941 4.33857 40.7843 4.34506V3.33911H48.9293V4.34506H45.7654V4.41645C45.7654 5.20498 46.1905 5.90266 47.0407 6.50623C47.8909 7.1098 48.7703 7.41483 49.6821 7.42456L48.7249 8.25204C47.9655 8.25204 47.2841 8.00542 46.4663 7.63224C45.6486 7.25582 45.1099 6.81126 44.8568 6.29855C44.6102 6.82099 44.0748 7.26556 43.257 7.63873C42.4393 8.00866 41.6443 8.19363 40.8784 8.19363L40.0283 7.42456C40.9466 7.41483 41.8292 7.11304 42.6762 6.51272C43.5231 5.91239 43.9482 5.21472 43.9482 4.41645V4.34506ZM43.9612 10.066H39.707V9.06004H49.2538C49.4387 9.06004 50.0001 9.06653 50.0099 9.06004V10.066H45.7557C45.7557 10.066 45.7395 13.8269 45.7557 13.8432H43.9579V10.066H43.9612Z" fill="#231815"/>
    <path d="M67.1662 8.40118C67.562 8.2292 67.8995 8.00529 68.1786 7.71973H70.4663V8.98853H72.264C72.264 8.98853 72.2478 3.07614 72.264 3.06641H70.4663V4.10805H68.2727C68.0001 3.78355 67.6562 3.53044 67.244 3.34548C66.8287 3.16051 66.3809 3.06641 65.9039 3.06641C65.0666 3.06641 64.3495 3.33899 63.7524 3.88415C63.1553 4.42931 62.86 5.08804 62.86 5.86035C62.86 6.63266 63.1553 7.28166 63.7524 7.83331C64.3463 8.38171 65.0634 8.65754 65.9039 8.65754C66.3517 8.65754 66.7735 8.57317 67.1662 8.40443V8.40118ZM68.9282 5.47095C68.9087 5.34439 68.8795 5.22108 68.8373 5.10426H70.4663V6.72676H68.8016C68.8568 6.59372 68.899 6.45418 68.9217 6.30491C68.9444 6.15889 68.9574 6.00962 68.9574 5.86035C68.9574 5.7273 68.9477 5.59426 68.9282 5.47095ZM65.0277 7.12265C64.7811 6.77219 64.6545 6.35034 64.6545 5.86035C64.6545 5.37035 64.7778 4.95175 65.0277 4.59804C65.2743 4.24759 65.5664 4.07236 65.9039 4.07236C66.2413 4.07236 66.5431 4.24759 66.7897 4.59804C67.0364 4.9485 67.1597 5.37035 67.1597 5.86035C67.1597 6.35034 67.0364 6.76895 66.7897 7.12265C66.5431 7.47311 66.2478 7.64834 65.9039 7.64834C65.5599 7.64834 65.2776 7.47311 65.0277 7.12265Z" fill="#231815"/>
    <path d="M72.2641 10.9616C72.2446 10.3256 71.7157 9.81616 71.0667 9.81616H64.2976V10.8221H70.4664C70.4664 10.8221 70.4826 13.9438 70.4664 13.96H72.2641C72.2641 13.96 72.2641 12.185 72.2641 10.9616Z" fill="#231815"/>
    <path d="M55.5101 4.31266V5.6496C55.5101 5.96436 55.4939 6.27588 55.4615 6.58416C55.429 6.89243 55.3641 7.16177 55.27 7.38892H56.8276C56.9542 7.25587 57.0677 7.00276 57.1618 6.63608C57.2592 6.26939 57.3046 5.92218 57.3046 5.60092V4.48789C57.3046 3.8324 56.7692 3.30347 56.1072 3.30347H51.3273V4.30942H55.5069L55.5101 4.31266Z" fill="#231815"/>
    <path d="M60.0142 5.23406C60.0142 5.23406 59.998 3.07614 60.0142 3.06641H58.2165V7.60291C57.9926 7.68079 57.7103 7.74894 57.3728 7.8041C57.0321 7.85927 56.6491 7.88847 56.2176 7.88847H54.29C54.29 7.88847 54.2803 5.51638 54.29 5.50664H52.5897V7.88847C52.5897 7.88847 50.9282 7.89496 50.912 7.88847V8.89442H56.1462C56.5453 8.89442 56.9282 8.85224 57.2949 8.77111C57.6616 8.68999 57.9699 8.58939 58.2165 8.46933V9.45256H60.0142V6.24326C60.0142 6.24326 61.8022 6.23677 61.8119 6.24326V5.23731H60.0142V5.23406Z" fill="#231815"/>
    <path d="M59.0829 10.0433C58.4436 9.55326 57.6681 9.30664 56.7627 9.30664C55.8574 9.30664 55.0818 9.55326 54.4425 10.0433C53.8033 10.5365 53.482 11.1368 53.482 11.8475C53.482 12.5581 53.8033 13.1487 54.4425 13.6452C55.0818 14.1384 55.8574 14.3883 56.7627 14.3883C57.6681 14.3883 58.4436 14.1417 59.0829 13.6452C59.7222 13.1487 60.0434 12.5516 60.0434 11.8475C60.0434 11.1433 59.7254 10.5365 59.0829 10.0433ZM57.535 12.9086C57.2495 13.2104 56.899 13.3629 56.4901 13.3629C56.0813 13.3629 55.7308 13.2104 55.4452 12.9086C55.1564 12.6068 55.0137 12.2596 55.0137 11.8669C55.0137 11.4743 55.1564 11.1141 55.4452 10.8091C55.7308 10.5008 56.0813 10.3483 56.4901 10.3483C56.899 10.3483 57.2495 10.5008 57.535 10.8091C57.8206 11.1141 57.9666 11.4678 57.9666 11.8669C57.9666 12.2661 57.8238 12.6036 57.535 12.9086Z" fill="#231815"/>
    <path d="M33.6129 4.21525V5.55219C33.6129 5.86695 33.5967 6.17847 33.5675 6.48675C33.535 6.79502 33.4701 7.06436 33.376 7.29151H34.9336C35.0634 7.15846 35.1738 6.90535 35.2679 6.53867C35.3652 6.17198 35.4106 5.82477 35.4106 5.50351V4.39048C35.4106 3.73499 34.8752 3.20605 34.2132 3.20605H29.5761V4.212H33.6129V4.21525Z" fill="#231815"/>
    <path d="M38.117 5.14007C38.117 5.14007 38.1007 2.98215 38.117 2.97241H36.3192V7.50892C36.0953 7.5868 35.813 7.65494 35.4755 7.71011C35.1348 7.76527 34.7519 7.79123 34.3203 7.79123H32.3928C32.3928 7.79123 32.3863 5.41914 32.3928 5.41265H30.6924V7.79123C30.6924 7.79123 29.177 7.80097 29.1608 7.79123V8.79718H34.2522C34.6513 8.79718 35.0342 8.755 35.4009 8.67387C35.7676 8.5895 36.0759 8.48891 36.3257 8.37209V9.35532H38.1235V6.14602C38.1235 6.14602 39.9114 6.13953 39.9212 6.14602V5.14007H38.1235H38.117Z" fill="#231815"/>
    <path d="M36.9682 9.94584C36.329 9.45585 35.5534 9.20923 34.6481 9.20923C33.7427 9.20923 32.9672 9.45585 32.3279 9.94584C31.6886 10.4358 31.3674 11.0394 31.3674 11.7501C31.3674 12.4607 31.6854 13.0513 32.3279 13.5478C32.9672 14.041 33.7427 14.2909 34.6481 14.2909C35.5534 14.2909 36.329 14.0443 36.9682 13.5478C37.6075 13.0513 37.9288 12.451 37.9288 11.7501C37.9288 11.0491 37.6075 10.4391 36.9682 9.94584ZM35.6378 12.8112C35.3522 13.113 35.0018 13.2655 34.5929 13.2655C34.184 13.2655 33.8336 13.113 33.548 12.8112C33.2592 12.5094 33.1164 12.1622 33.1164 11.7695C33.1164 11.3769 33.2592 11.0199 33.548 10.7117C33.8336 10.4034 34.184 10.2509 34.5929 10.2509C35.0018 10.2509 35.3522 10.4034 35.6378 10.7117C35.9266 11.0199 36.0694 11.3704 36.0694 11.7695C36.0694 12.1687 35.9266 12.5061 35.6378 12.8112Z" fill="#231815"/>
    <path d="M35.985 21.3358L34.7032 15.9329H35.826L36.634 19.6451L37.6205 15.9329H38.9314L39.866 19.7068L40.6935 15.9329H41.7903L40.489 21.3358H39.3111L38.25 17.2958L37.1759 21.3358H35.985Z" fill="#231815"/>
    <path d="M43.1564 19.2559L43.8898 17.2472L44.6426 19.2559H43.1564ZM44.5258 15.9882H43.3738L41.2711 21.3911H42.4296L42.8774 20.1645H45.0515L45.5155 21.3911H46.6935L44.5258 15.9882Z" fill="#231815"/>
    <path d="M47.1478 21.3943V15.9882H48.2089L50.4285 19.6096V15.9882H51.4409V21.3943H50.3473L48.1602 17.8443V21.3943H47.1478Z" fill="#231815"/>
    <path d="M54.6859 19.4116V18.4998H57.0385V20.6609C56.8114 20.8816 56.4804 21.0763 56.0455 21.245C55.6107 21.4138 55.1726 21.4949 54.7281 21.4949C54.1635 21.4949 53.6702 21.3781 53.2516 21.138C52.8298 20.9011 52.515 20.5603 52.3041 20.119C52.0931 19.6777 51.9861 19.1942 51.9861 18.675C51.9861 18.1104 52.1029 17.6106 52.3398 17.1726C52.5766 16.7345 52.9206 16.397 53.3749 16.1634C53.7221 15.9817 54.1505 15.894 54.6664 15.894C55.3349 15.894 55.8606 16.0336 56.237 16.3126C56.6134 16.5917 56.8568 16.9811 56.9639 17.4744L55.8768 17.6788C55.8022 17.4127 55.6594 17.205 55.4485 17.0525C55.2408 16.9 54.9779 16.8221 54.6664 16.8221C54.1927 16.8221 53.813 16.9746 53.5339 17.2764C53.2548 17.5814 53.1153 18.0325 53.1153 18.6296C53.1153 19.2753 53.2581 19.7588 53.5404 20.0801C53.826 20.4013 54.1959 20.5636 54.6599 20.5636C54.8871 20.5636 55.1175 20.5182 55.3446 20.4273C55.575 20.3364 55.7697 20.2294 55.9352 20.0996V19.4116H54.6859Z" fill="#231815"/>
    <path d="M32.1235 19.4116V18.4998H34.4761V20.6609C34.2489 20.8816 33.9179 21.0763 33.4831 21.245C33.0483 21.4138 32.6102 21.4949 32.1656 21.4949C31.601 21.4949 31.1078 21.3781 30.6892 21.138C30.2706 20.9011 29.9525 20.5603 29.7416 20.119C29.5307 19.6777 29.4236 19.1942 29.4236 18.675C29.4236 18.1104 29.5404 17.6106 29.7773 17.1726C30.0142 16.7345 30.3582 16.397 30.8125 16.1634C31.1564 15.9817 31.588 15.894 32.104 15.894C32.7724 15.894 33.2981 16.0336 33.6746 16.3126C34.051 16.5917 34.2944 16.9811 34.4014 17.4744L33.3144 17.6788C33.2397 17.4127 33.097 17.205 32.886 17.0525C32.6783 16.9 32.4155 16.8221 32.104 16.8221C31.6302 16.8221 31.2505 16.9746 30.9715 17.2764C30.6924 17.5814 30.5529 18.0325 30.5529 18.6296C30.5529 19.2753 30.6957 19.7588 30.978 20.0801C31.2635 20.4013 31.6335 20.5636 32.0975 20.5636C32.3246 20.5636 32.555 20.5182 32.7822 20.4273C33.0126 20.3364 33.2073 20.2294 33.3728 20.0996V19.4116H32.1235Z" fill="#231815"/>
    <path d="M59.9363 15.9882H61.0299V19.4149C61.0299 19.8627 60.9909 20.2067 60.9131 20.45C60.806 20.7648 60.6145 21.0179 60.3387 21.2094C60.0596 21.4008 59.6929 21.4949 59.2386 21.4949C58.7032 21.4949 58.2943 21.3456 58.0055 21.0439C57.7167 20.7421 57.5707 20.3008 57.5707 19.7199L58.6059 19.6063C58.6188 19.9211 58.6643 20.1418 58.7422 20.2716C58.859 20.4695 59.0374 20.5669 59.2776 20.5669C59.5177 20.5669 59.6897 20.4987 59.7903 20.3592C59.8909 20.2196 59.9396 19.9308 59.9396 19.4928V15.9946L59.9363 15.9882Z" fill="#231815"/>
    <path d="M62.0293 15.9881H63.1229V18.9216C63.1229 19.3856 63.1359 19.6874 63.1618 19.8269C63.2073 20.0476 63.3208 20.2261 63.4928 20.3591C63.6681 20.4954 63.9082 20.5603 64.21 20.5603C64.5118 20.5603 64.7486 20.4954 64.9044 20.3689C65.0602 20.2423 65.1543 20.0865 65.1867 19.9016C65.2192 19.7166 65.2354 19.4116 65.2354 18.98V15.9849H66.329V18.8275C66.329 19.4765 66.2998 19.9373 66.2413 20.2034C66.1829 20.4694 66.0726 20.6966 65.9168 20.8816C65.7578 21.0665 65.5469 21.2126 65.2808 21.3229C65.0147 21.4332 64.6708 21.4851 64.2424 21.4851C63.7265 21.4851 63.3371 21.4267 63.071 21.3067C62.8049 21.1866 62.594 21.0341 62.4382 20.8426C62.2824 20.6512 62.1819 20.4532 62.1332 20.2423C62.0618 19.9308 62.0261 19.4732 62.0261 18.8697V15.9849L62.0293 15.9881Z" fill="#231815"/>
    <path d="M72.6243 20.9887C72.2219 21.2516 71.7546 21.3814 71.2257 21.3814C70.8363 21.3814 70.4696 21.3035 70.1321 21.1477C69.7914 20.9952 69.4928 20.7746 69.23 20.4793C69.0126 20.2262 68.8471 19.9439 68.7335 19.6323C68.6199 19.3111 68.5615 18.9768 68.5615 18.6264C68.5615 18.2597 68.6297 17.9125 68.7692 17.588C68.9055 17.257 69.1099 16.9585 69.376 16.6924C69.6291 16.4457 69.9114 16.2575 70.223 16.1277C70.5377 15.9979 70.8752 15.9363 71.2354 15.9363C71.7708 15.9363 72.2446 16.0726 72.6535 16.3451C73.0753 16.6275 73.4063 17.0331 73.6432 17.5718H72.5561C72.3874 17.3381 72.1927 17.1661 71.972 17.0558C71.7578 16.9552 71.508 16.9033 71.2289 16.9033C70.9985 16.9033 70.7876 16.9422 70.5961 17.0201C70.3982 17.1012 70.223 17.2245 70.0737 17.3835C69.8985 17.5523 69.7687 17.747 69.681 17.9612C69.5934 18.1753 69.5512 18.4025 69.5512 18.6361C69.5512 18.8827 69.5902 19.1164 69.6681 19.3305C69.7492 19.5447 69.8725 19.7329 70.0315 19.8952C70.1873 20.0639 70.3722 20.1937 70.5832 20.2878C70.7876 20.3787 71.005 20.4241 71.2289 20.4241C71.4982 20.4241 71.7416 20.3722 71.9525 20.2651C72.1667 20.158 72.3549 20.0023 72.5172 19.7913H73.6529C73.3868 20.3203 73.0461 20.7194 72.6275 20.9887H72.6243Z" fill="#231815" stroke="#231815" stroke-width="0.25"/>
    <path d="M74.6005 21.2937V16.0498H75.5675V21.2937H74.6005Z" fill="#231815" stroke="#231815" stroke-width="0.25"/>
    <path d="M77.3977 21.2905V16.9552H76.3787V16.0498H79.3803V16.9552H78.3549V21.2905H77.3977Z" fill="#231815" stroke="#231815" stroke-width="0.25"/>
    <path d="M82.3268 21.2937H81.3598V19.3597L79.7503 16.0498H80.8309L81.8563 18.2921L82.8687 16.0498H83.9428L82.3268 19.4019V21.2937Z" fill="#231815" stroke="#231815" stroke-width="0.25"/>
  </mask>
  <g mask="url(#mask0_921_414)">
    <rect x="0.179688" width="83.7209" height="24.013" fill="#AAAAAA"/>
  </g>
</svg>