<svg xmlns="http://www.w3.org/2000/svg" width="125" height="24" viewBox="0 0 125 24" fill="none">
  <mask id="mask0_917_4" style="mask-type:alpha" maskUnits="userSpaceOnUse" x="0" y="0" width="125" height="24">
    <path d="M15.0557 0.114033C15.5118 0.21815 15.9705 0.31483 16.4241 0.426384C18.5337 0.939532 20.3781 1.93608 21.8977 3.49784C22.3216 3.93414 22.7133 4.40018 23.1198 4.85136C23.0033 4.85632 22.8868 4.8588 22.7703 4.86375C22.4208 4.5638 22.0762 4.26136 21.7217 3.96636C20.9631 3.3367 20.1252 2.84339 19.2204 2.44675C18.3652 2.07242 17.4925 1.8047 16.5679 1.6981C16.5456 1.68075 16.5257 1.651 16.501 1.64604C15.606 1.4973 14.7037 1.51713 13.8038 1.58407C13.6303 1.59646 13.4593 1.65844 13.2882 1.6981C12.6809 1.84188 12.0611 1.94104 11.4736 2.13936C10.2837 2.54095 9.20285 3.15326 8.24597 3.97628C6.92715 5.11165 5.92564 6.45774 5.47695 8.17071C5.38027 8.72352 5.28607 9.27633 5.18939 9.82914C5.19435 10.1018 5.11502 10.3894 5.34556 10.615C5.37779 11.7206 5.80665 12.6626 6.53795 13.4683C7.50723 14.5342 8.72441 15.035 10.1473 14.8516C11.4909 14.678 12.5767 14.0112 13.3279 12.851C13.8261 12.0825 14.4781 11.4925 15.3334 11.1356C16.0671 10.8282 16.8158 10.7637 17.6091 10.8505C18.6403 10.9645 19.5005 11.4033 20.1946 12.1321C21.4044 13.4038 21.7886 14.9482 21.3548 16.629C21.1466 17.4346 20.7648 18.213 20.3607 18.9468C19.7509 20.0549 18.9725 21.054 17.971 21.8447C16.3646 23.1115 14.5103 23.7957 12.485 23.9519C11.5331 24.0238 10.5638 24.0337 9.60692 23.8502C8.38231 23.6172 7.24694 23.1735 6.1909 22.5166C4.97372 21.758 4.0094 20.7366 3.17398 19.5839C1.875 17.7891 1.07924 15.7985 0.950338 13.5823C0.875969 12.3156 0.915632 11.0414 1.18584 9.787C1.45357 8.54503 1.91218 7.37 2.53936 6.27429C3.35495 4.85384 4.41099 3.62922 5.70006 2.60541C7.10068 1.49234 8.67483 0.763525 10.4101 0.369368C10.8836 0.262772 11.3596 0.166091 11.8355 0.0644534C11.9173 0.0421426 12.0016 0.0198318 12.0834 0C12.6883 0 13.2956 0 13.9005 0C13.9997 0.0396636 14.0964 0.109075 14.1955 0.114033C14.4806 0.128907 14.7682 0.114033 15.0532 0.114033H15.0557Z" fill="#013866"/>
    <path d="M124.733 15.0499H120.727C120.727 15.6845 120.727 16.2869 120.727 16.8893C120.727 17.4049 120.47 17.6619 119.956 17.6602C119.788 17.6602 119.619 17.6602 119.448 17.6602V15.0474C118.251 15.0474 117.103 15.0474 115.953 15.0474C115.318 15.0474 115.41 15.1019 115.405 14.4971C115.402 13.9244 115.405 13.9145 115.967 13.9145C118.285 13.9095 120.606 13.9071 122.923 13.9095C123.526 13.9095 124.128 13.9393 124.731 13.9542V15.0474L124.733 15.0499Z" fill="#575555"/>
    <path d="M15.0557 0.114033C14.7681 0.114033 14.483 0.128907 14.198 0.114033C14.0988 0.109075 13.9996 0.0396636 13.903 0C14.2872 0 14.669 0 15.0532 0C15.0532 0.0371847 15.0557 0.0768483 15.0582 0.114033H15.0557Z" fill="#595758"/>
    <path d="M11.8355 0.0619744C11.8182 0.0421426 11.7984 0.0198318 11.781 0C11.8826 0 11.9818 0 12.0834 0C12.0016 0.0198318 11.9198 0.0421426 11.8355 0.0619744Z" fill="#575555"/>
    <path d="M20.44 22.1546C21.6076 21.0242 22.5149 19.7153 23.0355 18.1709C23.3032 17.3776 23.5511 16.562 23.6676 15.7365C23.7767 14.9606 23.7172 14.1574 23.7073 13.3666C23.6949 12.318 23.4073 11.319 23.0826 10.3323C22.7603 9.35563 22.2397 8.48551 21.6026 7.68976C20.1971 5.93712 18.3924 4.77696 16.2332 4.19192C13.5757 3.47054 11.0174 3.68373 8.64007 5.1612C7.46999 5.89002 6.54285 6.86922 5.95533 8.13846C5.88097 8.29959 5.79668 8.45576 5.71487 8.61442C5.48681 8.54501 5.46698 8.36404 5.47193 8.16572C5.92063 6.45275 6.92214 5.10667 8.24095 3.9713C9.19784 3.14827 10.2787 2.53349 11.4686 2.13437C12.0561 1.93605 12.6783 1.8369 13.2832 1.69312C14.3764 1.69312 15.4696 1.69312 16.5654 1.69312C17.49 1.79971 18.3651 2.06744 19.2179 2.44177C20.1227 2.8384 20.9606 3.33172 21.7191 3.96138C22.0736 4.25638 22.4182 4.55881 22.7678 4.85877C22.919 5.05461 23.0727 5.25045 23.2239 5.44877C23.5833 5.91729 23.9453 6.38334 24.3047 6.85187C24.4906 7.22867 24.7311 7.5906 24.8501 7.98724C25.1253 8.8995 25.393 9.8192 25.5665 10.7538C25.6954 11.4479 25.7252 12.1718 25.6979 12.8783C25.6335 14.5293 25.3013 16.1381 24.6419 17.6577C24.1312 18.8303 23.4495 19.8962 22.5719 20.8407C21.9447 21.515 21.2804 22.1397 20.5416 22.6826C20.4673 22.5413 20.3929 22.4025 20.3185 22.2612C20.3384 22.2389 20.3607 22.219 20.3805 22.1967C20.4028 22.1794 20.4251 22.162 20.445 22.1447L20.44 22.1546Z" fill="#F80221"/>
    <path d="M86.9485 9.50189C88.3814 9.49694 89.8142 9.49198 91.247 9.48702C91.4974 9.48702 91.7453 9.48702 92.0155 9.48702V7.9798C92.4146 7.96988 92.7964 7.95501 93.1782 7.95997C93.2203 7.95997 93.2972 8.0864 93.2972 8.15333C93.3046 9.94315 93.3021 11.733 93.3046 13.5228C93.3046 13.7062 93.2401 13.7583 93.0517 13.7583C92.1643 13.7484 91.2743 13.7583 90.3868 13.7583C90.2802 13.7583 90.1712 13.7583 90.0423 13.7583V15.7613H94.0037V16.8967H84.7769V15.7886H88.7309V13.7831H85.5132V7.97732H86.6981C86.6981 8.10127 86.6981 8.24753 86.6981 8.39627C86.6981 8.68879 86.7056 9.27631 86.7056 9.27631V9.50437C86.7056 9.50437 86.9212 9.50437 86.9485 9.50437V9.50189ZM92.0155 10.6298H86.7651V12.613H92.0155V10.6298Z" fill="#575556"/>
    <path d="M65.1211 14.2962C65.0864 14.202 65.0194 14.1078 65.0194 14.0161C65.0219 13.1435 64.8955 13.26 65.7582 13.2526C66.5837 13.2452 67.4117 13.2526 68.2619 13.2526V12.5163C68.1603 12.5114 68.0636 12.5039 67.9645 12.5039C66.844 12.5039 65.7235 12.4965 64.6055 12.5089C64.3576 12.5089 64.2609 12.4345 64.2807 12.1792C64.3005 11.9412 64.2857 11.6983 64.2857 11.438H73.5917V12.4916H69.556C69.556 12.6973 69.5634 12.8758 69.556 13.0518C69.5461 13.2377 69.6155 13.2823 69.8064 13.2799C70.7037 13.26 71.6011 13.2675 72.501 13.2526C72.7439 13.2501 72.858 13.3022 72.8505 13.5873C72.8307 14.2442 72.8431 14.9011 72.8604 15.558C72.8654 15.7836 72.796 15.8506 72.5704 15.8506C70.5922 15.8431 68.614 15.8456 66.6382 15.8456C66.4597 15.8456 66.2788 15.796 66.2788 16.1009C66.2788 16.3786 66.3829 16.4381 66.6357 16.4381C68.6536 16.4306 70.6715 16.4331 72.6894 16.4356C72.7662 16.4356 72.8456 16.4455 72.9546 16.453C72.9546 16.7678 72.9621 17.0702 72.9546 17.3702C72.9472 17.5933 72.7687 17.5412 72.6373 17.5388C71.5292 17.5239 70.4236 17.4941 69.3155 17.4867C67.9025 17.4768 66.492 17.4867 65.0517 17.4867V14.8268H71.5416V14.2962C69.4295 14.2962 67.3249 14.2962 65.2202 14.2962C65.1905 14.2962 65.1607 14.3012 65.1285 14.3012L65.1211 14.2962Z" fill="#575556"/>
    <path d="M99.2319 13.4287C97.9205 13.4287 96.6091 13.4287 95.3002 13.4287C95.1911 13.4287 95.0821 13.4187 94.9556 13.4113V12.385H99.0088C98.984 12.1545 98.9617 11.9537 98.9393 11.7554C98.917 11.7479 98.8922 11.7405 98.8699 11.733C97.8907 11.743 96.914 11.7554 95.9348 11.7504C95.8629 11.7504 95.734 11.614 95.7315 11.5397C95.7192 10.3051 95.7241 9.0731 95.7167 7.83857C95.7167 7.63777 95.8183 7.60059 95.9819 7.60059C96.3042 7.60059 96.6289 7.60059 96.9512 7.60306C99.0509 7.6105 101.148 7.61794 103.248 7.62538C103.317 7.62538 103.387 7.63529 103.468 7.64273V8.65415H97.0504C96.9438 9.13259 96.9611 9.15986 97.4073 9.15986C99.3137 9.16234 101.222 9.1673 103.129 9.15986C103.397 9.15986 103.498 9.21688 103.486 9.51188C103.456 10.1911 103.473 10.1911 102.799 10.1911C100.972 10.1911 99.1451 10.1911 97.3206 10.1911C97.1669 10.1911 96.9884 10.1391 96.9859 10.4068C96.9834 10.6522 97.0999 10.7117 97.3181 10.7117C99.093 10.7117 100.87 10.7142 102.645 10.7191C102.928 10.7191 103.211 10.7191 103.538 10.7191C103.538 11.0092 103.55 11.3091 103.528 11.6066C103.523 11.6611 103.379 11.7454 103.297 11.7454C102.702 11.7554 102.107 11.7479 101.513 11.7479C101.111 11.7479 100.709 11.7479 100.29 11.7479V12.3726H104.254V13.4411C103.007 13.4411 101.763 13.4411 100.516 13.4411C100.09 13.4361 99.6657 13.4287 99.2393 13.4237L99.2319 13.4287Z" fill="#575556"/>
    <path d="M116.245 12.5808C116.228 12.5039 116.195 12.4271 116.193 12.3502C116.191 10.8752 116.193 9.39776 116.193 7.92277C116.193 7.86327 116.205 7.80626 116.215 7.70958C116.585 7.70958 116.944 7.69966 117.304 7.71949C117.361 7.72197 117.447 7.86079 117.452 7.9426C117.47 8.2723 117.46 8.60697 117.46 8.95154C117.532 8.96146 117.579 8.97386 117.626 8.97386C119.22 8.97386 120.814 8.97138 122.408 8.98377C122.683 8.98377 122.762 8.89205 122.737 8.63176C122.715 8.41113 122.745 8.18554 122.728 7.96491C122.713 7.74428 122.802 7.68479 123.01 7.69966C123.27 7.71701 123.536 7.69222 123.796 7.71949C123.873 7.72693 123.994 7.85584 123.994 7.93021C124.007 9.39528 124.002 10.8628 124.004 12.3279C124.004 12.5609 123.895 12.6279 123.67 12.6279C121.349 12.608 119.031 12.5981 116.711 12.5857C116.58 12.5857 116.448 12.5932 116.319 12.5981C116.295 12.5932 116.27 12.5857 116.245 12.5808ZM117.477 10.082V11.4479H122.728C122.728 11.0859 122.71 10.7438 122.733 10.4042C122.75 10.1439 122.643 10.077 122.405 10.0795C120.774 10.0869 119.14 10.082 117.477 10.082Z" fill="#575556"/>
    <path d="M77.8903 8.98631C78.6638 9.9308 79.4322 10.8778 80.2131 11.8148C80.3445 11.9735 80.3743 12.0826 80.1859 12.204C80.1016 12.2586 80.0247 12.323 79.9454 12.385C79.6529 12.618 79.3876 12.5874 79.1496 12.2933C78.6266 11.6388 78.106 10.9819 77.5829 10.3274C77.5458 10.2803 77.516 10.2283 77.4491 10.1316C76.7351 11.0934 76.0559 12.0032 75.3642 12.9328C75.0395 12.6874 74.742 12.4668 74.4545 12.2486C75.3097 11.1505 76.1501 10.0771 76.9905 9.00119C76.9731 8.97144 76.9558 8.94417 76.9409 8.91442C76.8368 8.91442 76.7351 8.91442 76.631 8.91442C76.0063 8.91442 75.3791 8.90699 74.7544 8.92186C74.5239 8.92682 74.4495 8.84005 74.4619 8.6219C74.4743 8.37153 74.4644 8.11867 74.4644 7.84351H80.2776C80.2776 8.1509 80.29 8.46077 80.2677 8.77064C80.2627 8.82518 80.1189 8.90947 80.0396 8.91195C79.3232 8.92186 78.6068 8.91442 77.8903 8.91195C77.868 8.92434 77.8457 8.93921 77.8234 8.95161C77.8457 8.964 77.868 8.9764 77.8903 8.98879V8.98631Z" fill="#585657"/>
    <path d="M57.8702 16.3266V9.28882H54.0129V8.15345C54.117 8.14849 54.2137 8.13858 54.3104 8.13858C55.8126 8.13858 57.3174 8.13858 58.8196 8.12866C59.065 8.12866 59.1468 8.19312 59.1468 8.45093C59.1394 10.977 59.1394 13.5056 59.1493 16.0316C59.1493 16.2721 59.0873 16.3514 58.8419 16.3316C58.5321 16.3068 58.2197 16.3266 57.8677 16.3266H57.8702Z" fill="#575556"/>
    <path d="M42.0567 7.54346C42.0567 8.74824 42.0567 9.93567 42.0567 11.1231C42.0567 11.133 42.0567 11.1429 42.0567 11.1528C42.0319 11.6057 42.2517 11.8321 42.7161 11.8321C42.907 11.8321 43.0978 11.8321 43.3309 11.8321C43.3309 12.1841 43.3457 12.5262 43.3185 12.8633C43.3135 12.9303 43.1549 13.0344 43.0631 13.0369C42.8152 13.0468 42.5673 13.0071 42.3194 12.9947C42.2426 12.9898 42.1633 13.0022 42.0567 13.0096C42.0567 13.2228 42.0567 13.4236 42.0567 13.6219C42.0567 14.8738 42.0517 16.1282 42.0641 17.38C42.0666 17.6255 41.9526 17.7048 41.7518 17.7172C41.5311 17.7296 41.308 17.7073 41.0874 17.7246C40.8444 17.742 40.7676 17.6379 40.7701 17.4073C40.78 16.5397 40.78 15.6695 40.78 14.8019C40.78 12.5088 40.7726 10.2158 40.7701 7.92274C40.7701 7.80375 40.7701 7.68476 40.7701 7.54594H42.0567V7.54346Z" fill="#575555"/>
    <path d="M79.9008 13.0468C81.3238 13.0468 82.5211 14.1375 82.5285 15.4464C82.536 16.79 81.3213 17.9576 79.9207 17.9626C78.3143 17.9675 77.2682 16.6537 77.2558 15.4985C77.2409 14.3383 78.3961 12.9501 79.9033 13.0468H79.9008ZM81.2469 15.5059C81.2469 14.5813 80.7635 14.14 79.7496 14.1375C79.0357 14.1375 78.5176 14.7176 78.5176 15.5158C78.5176 16.2967 79.1076 16.8619 79.9207 16.8619C80.6792 16.8619 81.2469 16.2794 81.2469 15.5034V15.5059Z" fill="#585657"/>
    <path d="M61.6456 7.53117H62.9297C62.9371 7.58818 62.952 7.6452 62.952 7.69974C62.952 10.8431 62.952 13.9864 62.952 17.1298C62.952 17.6652 62.8975 17.7173 62.3521 17.7173C61.6431 17.7173 61.6481 17.7173 61.6481 17.0157C61.6431 13.9021 61.6381 10.7885 61.6332 7.67495C61.6332 7.63528 61.6381 7.5981 61.6456 7.52869V7.53117Z" fill="#575556"/>
    <path d="M39.3944 8.09131C39.3944 8.27971 39.3944 8.44828 39.3944 8.61685C39.3944 10.4141 39.3894 12.2138 39.3944 14.0111C39.3944 14.2838 39.3126 14.4028 39.0349 14.383C38.8341 14.3681 38.6308 14.3755 38.43 14.383C38.2069 14.3904 38.1152 14.3086 38.1177 14.0656C38.1276 12.5708 38.1227 11.076 38.1202 9.58117C38.1202 9.47954 38.1202 9.38038 38.1202 9.23908C38.0061 9.23164 37.8995 9.22172 37.7954 9.22172C36.5659 9.22172 35.3363 9.21676 34.1042 9.22916C33.8464 9.23164 33.7299 9.16471 33.7572 8.88954C33.7844 8.62677 33.782 8.36152 33.7919 8.09379H39.3894L39.3944 8.09131Z" fill="#575556"/>
    <path d="M100.501 13.7831C101.279 13.9764 101.81 14.5516 102.016 15.3622C102.259 16.3166 101.795 17.2388 100.994 17.7023C99.8367 18.3741 98.5575 18.1956 97.6775 17.1966C96.8594 16.267 96.966 14.9407 98.084 14.1574C98.4336 13.912 98.7509 13.7855 99.1847 13.7261C99.5863 13.669 100.107 13.6839 100.501 13.7831ZM100.808 15.8208C100.808 15.1341 100.318 14.6805 99.5814 14.678C98.8996 14.678 98.379 15.211 98.3865 15.9125C98.3914 16.5372 98.969 17.0553 99.6557 17.0528C100.365 17.0528 100.811 16.5719 100.808 15.8183V15.8208Z" fill="#585657"/>
    <path d="M107.137 14.093C107.137 14.6805 107.147 15.2556 107.135 15.8283C107.135 16.1555 107.145 16.3166 107.145 16.3166C107.145 16.3166 108.082 16.3265 108.228 16.324C109.993 16.3216 111.761 16.3216 113.526 16.3265C113.721 16.3265 113.917 16.3687 114.13 16.3935C114.13 16.6587 114.118 16.9091 114.133 17.1595C114.148 17.395 114.073 17.4768 113.826 17.4718C112.923 17.4545 112.021 17.4669 111.119 17.4669C109.641 17.4669 108.161 17.4619 106.684 17.4693C106.396 17.4693 106.148 17.4693 105.856 17.4693V14.088H107.135L107.137 14.093Z" fill="#575556"/>
    <path d="M50.7678 17.5982V15.3596C50.6662 15.3497 50.5893 15.3373 50.515 15.3373C48.4995 15.3423 46.4817 15.3472 44.4662 15.3522C44.0622 15.3522 44.0622 15.3522 44.0597 14.9556C44.0597 14.7151 44.0597 14.4746 44.0597 14.2168C44.1613 14.2094 44.2382 14.1995 44.315 14.1995C46.7643 14.1945 49.216 14.1995 51.6652 14.1821C51.9775 14.1821 52.0618 14.2937 52.0569 14.5812C52.0445 15.4588 52.047 16.3388 52.0569 17.2189C52.0593 17.4891 51.9949 17.6304 51.6875 17.6031C51.3999 17.5758 51.1074 17.5982 50.7678 17.5982Z" fill="#575555"/>
    <path d="M110.424 13.2427C109.71 12.0503 109.009 10.8778 108.253 9.61348C107.517 10.8778 106.813 12.085 106.091 13.3245C105.791 13.1435 105.506 12.9799 105.226 12.8064C105.05 12.6973 105.142 12.5808 105.221 12.4544C106.084 11.0438 106.941 9.62835 107.799 8.21534C107.938 7.98479 108.064 7.74681 108.236 7.44189C108.449 7.78895 108.625 8.08147 108.803 8.37151C109.614 9.69528 110.422 11.0191 111.243 12.3379C111.379 12.5585 111.394 12.6874 111.143 12.8138C110.905 12.9353 110.682 13.089 110.424 13.2452V13.2427Z" fill="#595758"/>
    <path d="M39.9843 15.5134V16.6315H33.415V15.511H35.4998V12.2189H36.7889V15.5159H39.9867L39.9843 15.5134Z" fill="#575556"/>
    <path d="M47.1907 9.52675C47.4361 9.58129 47.6716 9.67797 47.8848 9.80935C48.331 10.082 48.6805 10.4489 48.8392 10.9819C49.1664 12.0974 48.6012 13.0618 47.6418 13.5278C46.204 14.2269 44.6051 13.2576 44.3275 11.9586C44.1886 11.3067 44.5183 10.4241 45.1108 9.99776C45.21 9.92586 45.3166 9.86141 45.4232 9.79944C45.6388 9.67301 45.8694 9.57137 46.1123 9.52179C46.4718 9.44742 46.8312 9.4499 47.1907 9.52675ZM45.5174 11.5769C45.4405 12.1098 46.0677 12.7073 46.5858 12.6949C47.1783 12.68 47.7336 12.2834 47.7385 11.5372C47.741 10.9646 47.3989 10.5283 46.6453 10.5183C46.028 10.5084 45.5645 10.8456 45.5174 11.5769Z" fill="#585657"/>
    <path d="M72.4663 11.2001C71.3508 10.4093 70.2774 9.65813 69.2139 8.89213C69.0106 8.74587 68.8668 8.73843 68.6586 8.89213C67.6645 9.61599 66.6556 10.32 65.6615 11.0414C65.4806 11.1728 65.3616 11.2025 65.2153 10.9993C65.0641 10.7885 64.8782 10.6001 64.6848 10.3746C64.784 10.2952 64.8732 10.2184 64.9674 10.1514C66.2168 9.26893 67.4712 8.38889 68.7156 7.49894C68.8768 7.38243 68.9933 7.38491 69.147 7.49398C70.4187 8.39385 71.6954 9.29124 72.972 10.1862C73.1282 10.2952 73.1604 10.4018 73.034 10.5481C72.8506 10.7588 72.6671 10.972 72.4688 11.2001H72.4663Z" fill="#595758"/>
    <path d="M50.7629 13.5279V7.54114H52.0495V9.90112H53.4948V11.1555H52.0545C52.0545 11.9017 52.0446 12.6181 52.0594 13.332C52.0644 13.5874 51.9826 13.6766 51.7322 13.6543C51.4149 13.6245 51.0976 13.6097 50.7803 13.5898C50.7753 13.5675 50.7679 13.5477 50.7629 13.5254V13.5279Z" fill="#575556"/>
    <path d="M82.0947 10.7017H80.228V9.62332H82.0873V7.54346H83.3813C83.3912 7.61039 83.4086 7.67732 83.4086 7.74425C83.4086 9.36055 83.4036 10.9793 83.4135 12.5956C83.4135 12.8509 83.3267 12.9377 83.0863 12.9278C82.8458 12.9179 82.6004 12.9129 82.3599 12.9278C82.1393 12.9427 82.0848 12.8509 82.0897 12.6452C82.0997 12.0205 82.0947 11.3933 82.0947 10.6992V10.7017Z" fill="#575556"/>
    <path d="M112.802 7.53605H114.056C114.061 7.61538 114.074 7.6947 114.074 7.77155C114.074 9.72994 114.074 11.6883 114.074 13.6467C114.074 14.0211 114.019 14.0805 113.635 14.0731C113.407 14.0682 113.174 14.0533 112.953 14.0037C112.886 13.9888 112.809 13.8351 112.807 13.7434C112.799 11.9561 112.802 10.1687 112.802 8.38138C112.802 8.11117 112.802 7.83848 112.802 7.53357V7.53605Z" fill="#575556"/>
    <path d="M45.5124 9.28381C44.9373 9.28877 44.3721 9.26894 43.8019 9.26894C43.7474 9.26894 43.6482 9.14251 43.6433 9.07062C43.6259 8.7905 43.6358 8.50789 43.6358 8.19058C43.7722 8.17323 43.8986 8.14844 44.0225 8.14596C44.5778 8.141 45.1331 8.12861 45.6859 8.14596C45.8966 8.15092 45.9413 8.09142 45.9388 7.88815C45.9338 7.69975 45.9388 7.54853 45.9388 7.34277H47.2948C47.2948 7.50886 47.2799 7.74933 47.2923 7.88319C47.2997 7.97987 47.3394 8.16331 47.5625 8.15588C48.1947 8.13853 48.8293 8.15092 49.511 8.15092C49.511 8.4955 49.5234 8.81281 49.5011 9.13012C49.4961 9.18713 49.3523 9.27638 49.268 9.27885C48.745 9.29125 48.2194 9.28133 47.6964 9.27885C47.6542 9.2615 46.1991 9.27885 45.5149 9.28381H45.5124Z" fill="#575556"/>
    <path d="M20.3186 22.2662C20.3929 22.4075 20.4673 22.5463 20.5417 22.6876C20.0632 22.9776 19.5873 23.2677 19.1088 23.5577C18.9402 23.6246 18.7741 23.6891 18.5461 23.7783C19.1782 23.2379 19.7459 22.752 20.3161 22.2637L20.3186 22.2662Z" fill="#F9142E"/>
    <path d="M24.3073 6.85437C23.9478 6.38584 23.5859 5.9198 23.2265 5.45127C23.0752 5.25543 22.9215 5.05959 22.7703 4.86127C22.8868 4.85631 23.0033 4.85383 23.1199 4.84888C23.5041 5.45127 23.8908 6.05366 24.2701 6.65853C24.3023 6.71059 24.2949 6.78744 24.3048 6.85437H24.3073Z" fill="#1C4575"/>
    <path d="M77.8904 8.98627C77.868 8.97388 77.8457 8.96148 77.8234 8.94909C77.8457 8.93669 77.868 8.92182 77.8904 8.90942C77.8904 8.93421 77.8904 8.96148 77.8904 8.98627Z" fill="#767475"/>
    <path d="M86.9485 9.50194C86.9213 9.50194 86.8965 9.49699 86.8692 9.49451C86.8965 9.49451 86.9213 9.49947 86.9485 9.50194Z" fill="#9E9E9E"/>
    <path d="M65.1212 14.2962C65.1509 14.2962 65.1806 14.2913 65.2129 14.2913C65.1831 14.2913 65.1534 14.2962 65.1212 14.2962Z" fill="#A6A4A4"/>
    <path d="M5.47689 8.16821C5.47193 8.36405 5.48929 8.5475 5.71983 8.61691C5.61572 9.00115 5.51408 9.38787 5.40996 9.77211C5.33559 9.79194 5.2637 9.8093 5.18933 9.82913C5.28601 9.27632 5.38021 8.7235 5.47689 8.17069V8.16821Z" fill="#F9142E"/>
    <path d="M16.5679 1.69559C15.4747 1.69559 14.3815 1.69559 13.2858 1.69559C13.4568 1.65593 13.6279 1.59643 13.8014 1.58156C14.7013 1.51463 15.6036 1.4948 16.4985 1.64353C16.5233 1.64849 16.5431 1.67824 16.5655 1.69559H16.5679Z" fill="#FB1940"/>
    <path d="M5.1869 9.82667C5.26127 9.80684 5.33316 9.78949 5.40753 9.76965C5.38522 10.0498 5.3629 10.3324 5.34307 10.6125C5.11253 10.3844 5.19186 10.0969 5.1869 9.82667Z" fill="#FB1940"/>
    <path d="M20.4401 22.1545C20.4178 22.1719 20.3954 22.1892 20.3756 22.2066C20.3979 22.1892 20.4202 22.1719 20.4401 22.1545Z" fill="#F9142E"/>
  </mask>
  <g mask="url(#mask0_917_4)">
    <rect x="0.918213" width="123.701" height="24.0461" fill="#AAAAAA"/>
  </g>
</svg>