<svg xmlns="http://www.w3.org/2000/svg" width="116" height="24" viewBox="0 0 116 24" fill="none">
  <mask id="mask0_918_250" style="mask-type:alpha" maskUnits="userSpaceOnUse" x="0" y="0" width="116" height="25">
    <path d="M0.293335 0.670654H2.40074L5.65763 7.40215H5.68376V0.670654H7.32527V9.67065H5.23093L1.96097 2.94351H1.93484V9.67501H0.293335V0.670654Z" fill="#004B9D"/>
    <path d="M10.1163 7.75045C10.1163 6.73158 11.2048 6.60531 11.9407 6.60531H12.6504C12.6504 7.12346 12.5764 7.59806 12.3064 7.97251C12.0495 8.33391 11.6576 8.56903 11.1526 8.56903C10.5648 8.56903 10.1119 8.3252 10.1119 7.75481L10.1163 7.75045ZM9.28464 4.86366C9.83761 4.42389 10.5343 4.14087 11.2309 4.14087C12.1976 4.14087 12.6504 4.50227 12.6504 5.57338H11.7447C11.0568 5.57338 10.2513 5.6387 9.62426 5.9609C8.99726 6.28311 8.54443 6.86656 8.54443 7.8593C8.54443 9.122 9.63297 9.83173 10.752 9.83173C11.5009 9.83173 12.3195 9.41809 12.6983 8.68224H12.7244C12.7375 8.88688 12.7375 9.32665 12.7984 9.67498H14.244C14.2092 9.16119 14.183 8.6953 14.17 8.19022C14.1569 7.6982 14.1482 7.19748 14.1482 6.52694V5.67788C14.1482 3.71852 13.3514 2.87817 11.4269 2.87817C10.7302 2.87817 9.87245 3.07411 9.23239 3.3789L9.28028 4.86366H9.28464Z" fill="#004B9D"/>
    <path d="M16.1816 4.29322H14.9668V3.03052H16.1816V1.70251L17.8231 1.14954V3.03052H19.2817V4.29322H17.8231V7.38901C17.8231 7.95505 17.9712 8.48626 18.5938 8.48626C18.8899 8.48626 19.1685 8.42094 19.3427 8.30774L19.3906 9.67494C19.0466 9.77943 18.6678 9.83168 18.1758 9.83168C16.8913 9.83168 16.1816 8.99133 16.1816 7.67639V4.29758V4.29322Z" fill="#004B9D"/>
    <path d="M20.3224 3.03047H21.9639V9.67053H20.3224V3.03047ZM20.3224 0.1698H21.9639V1.82002H20.3224V0.1698Z" fill="#004B9D"/>
    <path d="M24.8812 6.19167C24.8812 5.19893 25.395 4.21925 26.4617 4.21925C27.5285 4.21925 28.0553 5.1728 28.0553 6.19167C28.0553 7.30198 27.7244 8.4863 26.4617 8.4863C25.199 8.4863 24.8812 7.28891 24.8812 6.19167ZM23.1656 6.39632C23.1656 8.30343 24.3805 9.82738 26.4617 9.82738C28.543 9.82738 29.7709 8.30343 29.7709 6.39632C29.7709 4.20619 28.3384 2.87817 26.4617 2.87817C24.5851 2.87817 23.1656 4.20619 23.1656 6.39632Z" fill="#004B9D"/>
    <path d="M30.929 3.03057H32.4878V3.93623H32.5139C33.0277 3.17426 33.7287 2.87817 34.5865 2.87817C36.08 2.87817 36.7287 3.98848 36.7287 5.48195V9.67498H35.0872V6.13071C35.0872 5.31649 35.0742 4.2236 34.0205 4.2236C32.8318 4.2236 32.5749 5.57774 32.5749 6.43115V9.67933H30.9334V3.03057H30.929Z" fill="#004B9D"/>
    <path d="M39.4588 7.75045C39.4588 6.73158 40.5517 6.60531 41.2832 6.60531H41.9929C41.9929 7.12346 41.9189 7.59806 41.6489 7.97251C41.392 8.33391 41.0001 8.56903 40.4994 8.56903C39.9116 8.56903 39.4544 8.3252 39.4544 7.75481L39.4588 7.75045ZM38.6271 4.86366C39.1758 4.42389 39.8768 4.14087 40.5734 4.14087C41.5401 4.14087 41.9972 4.50227 41.9972 5.57338H41.0916C40.4036 5.57338 39.5981 5.6387 38.9711 5.9609C38.3485 6.28311 37.8913 6.86656 37.8913 7.8593C37.8913 9.122 38.9842 9.83173 40.0945 9.83173C40.8434 9.83173 41.662 9.41809 42.0408 8.68224H42.0626C42.0756 8.88688 42.0756 9.32665 42.1366 9.67498H43.5822C43.5473 9.16119 43.5212 8.6953 43.5081 8.19022C43.4951 7.6982 43.482 7.19748 43.482 6.52694V5.67788C43.482 3.71852 42.6852 2.87817 40.7607 2.87817C40.064 2.87817 39.2062 3.07411 38.5705 3.3789L38.6184 4.86366H38.6271Z" fill="#004B9D"/>
    <path d="M45.019 0H46.6606V9.67054H45.019V0Z" fill="#004B9D"/>
    <path d="M53.2658 2.09002H53.8274C54.6852 2.09002 55.6388 2.18146 55.6388 3.26128C55.6388 4.34111 54.6721 4.51092 53.8274 4.51092H53.2658V2.08566V2.09002ZM51.5502 9.67057H53.2658V5.93037H53.8187C54.5415 5.93037 54.7636 6.18726 55.0074 6.8578L56.035 9.67057H57.9465L56.5749 6.15243C56.4007 5.75185 56.1351 5.25983 55.6692 5.225V5.19887C56.7621 5.04212 57.4327 4.16694 57.4327 3.10889C57.4327 0.605259 55.2382 0.670571 53.4007 0.670571H51.5502V9.67057Z" fill="#004B9D"/>
    <path d="M60.0756 5.69965C60.1496 4.81141 60.6155 4.14087 61.5343 4.14087C62.453 4.14087 62.8231 4.86366 62.871 5.69965H60.0756ZM63.9726 7.89414C63.3586 8.25553 62.675 8.56468 61.8782 8.56468C60.8637 8.56468 60.1496 7.95945 60.08 6.88833H64.4428C64.4428 4.56758 63.781 2.87817 61.4428 2.87817C59.4835 2.87817 58.5168 4.46308 58.5168 6.38761C58.5168 8.56903 59.7316 9.83173 61.8129 9.83173C62.6968 9.83173 63.3804 9.64886 63.9813 9.30488V7.89849L63.9726 7.89414Z" fill="#004B9D"/>
    <path d="M69.3499 4.42381C68.8492 4.24529 68.4834 4.14079 67.8782 4.14079C67.4384 4.14079 66.9116 4.3106 66.9116 4.87664C66.9116 5.9347 69.7679 5.26416 69.7679 7.66329C69.7679 9.20901 68.4573 9.83165 67.1206 9.83165C66.4979 9.83165 65.8622 9.71409 65.2614 9.54863L65.3571 8.12918C65.8709 8.39914 66.4108 8.56895 66.9725 8.56895C67.3905 8.56895 68.0524 8.39914 68.0524 7.75472C68.0524 6.45284 65.196 7.34544 65.196 4.94631C65.196 3.5138 66.3847 2.88245 67.6692 2.88245C68.4442 2.88245 68.945 3.00872 69.4587 3.12628L69.3455 4.42816L69.3499 4.42381Z" fill="#004B9D"/>
    <path d="M72.0843 5.69965C72.1583 4.81141 72.6242 4.14087 73.543 4.14087C74.4617 4.14087 74.8274 4.86366 74.8753 5.69965H72.0843ZM75.9813 7.89414C75.3673 8.25553 74.6837 8.56468 73.8869 8.56468C72.8724 8.56468 72.1583 7.95945 72.0887 6.88833H76.4472C76.4472 4.56758 75.7853 2.87817 73.4472 2.87817C71.4878 2.87817 70.5212 4.46308 70.5212 6.38761C70.5212 8.56903 71.736 9.83173 73.8173 9.83173C74.7012 9.83173 75.3848 9.64886 75.9856 9.30488V7.89849L75.9813 7.89414Z" fill="#004B9D"/>
    <path d="M78.7723 7.75045C78.7723 6.73158 79.8652 6.60531 80.6011 6.60531H81.3108C81.3108 7.12346 81.2368 7.59806 80.9668 7.97251C80.7056 8.33391 80.318 8.56903 79.813 8.56903C79.2252 8.56903 78.7723 8.3252 78.7723 7.75481V7.75045ZM77.9407 4.86366C78.4937 4.42389 79.1903 4.14087 79.887 4.14087C80.858 4.14087 81.3108 4.50227 81.3108 5.57338H80.4051C79.7172 5.57338 78.9117 5.6387 78.2847 5.9609C77.6577 6.28311 77.2048 6.86656 77.2048 7.8593C77.2048 9.122 78.2977 9.83173 79.4124 9.83173C80.1569 9.83173 80.9799 9.41809 81.3587 8.68224H81.3848C81.3979 8.88688 81.3979 9.32665 81.4588 9.67498H82.9044C82.8696 9.16119 82.8434 8.6953 82.8304 8.19022C82.8173 7.6982 82.8086 7.19748 82.8086 6.52694V5.67788C82.8086 3.71852 82.0118 2.87817 80.0916 2.87817C79.3906 2.87817 78.5328 3.07411 77.8971 3.3789L77.945 4.86366H77.9407Z" fill="#004B9D"/>
    <path d="M84.3325 3.03057H85.7912V4.54145H85.8129C85.887 3.92317 86.5619 2.87817 87.5415 2.87817C87.7026 2.87817 87.8768 2.87817 88.0423 2.93042V4.67208C87.8942 4.58064 87.6025 4.52839 87.3064 4.52839C85.9697 4.52839 85.9697 6.28311 85.9697 7.23666V9.67498H84.3282V3.03057H84.3325Z" fill="#004B9D"/>
    <path d="M92.8144 4.46304C92.5183 4.31935 92.2005 4.21921 91.6997 4.21921C90.6809 4.21921 90.0321 5.07262 90.0321 6.32226C90.0321 7.57189 90.5851 8.48626 91.7346 8.48626C92.2005 8.48626 92.7142 8.30774 92.9973 8.17712L93.0713 9.60963C92.5923 9.76202 92.1003 9.82733 91.4298 9.82733C89.3616 9.82733 88.3209 8.34257 88.3209 6.3179C88.3209 4.29323 89.3964 2.87378 91.3688 2.87378C92.0306 2.87378 92.5096 2.95215 92.9624 3.09149L92.8144 4.45868V4.46304Z" fill="#004B9D"/>
    <path d="M94.0379 0H95.6794V3.93614H95.7055C96.1235 3.29173 96.8333 2.87808 97.691 2.87808C99.1845 2.87808 99.8333 3.98839 99.8333 5.48186V9.67489H98.1917V6.13062C98.1917 5.3164 98.1787 4.22351 97.125 4.22351C95.9363 4.22351 95.6794 5.57765 95.6794 6.43106V9.67924H94.0379V0Z" fill="#004B9D"/>
    <path d="M0.380371 14.8389H5.13509V16.2583H2.0959V18.4746H4.98705V19.894H2.0959V23.8389H0.380371V14.8389Z" fill="#004B9D"/>
    <path d="M7.54732 20.36C7.54732 19.3673 8.06111 18.3876 9.12787 18.3876C10.1946 18.3876 10.7215 19.3411 10.7215 20.36C10.7215 21.4703 10.3906 22.6546 9.12787 22.6546C7.86517 22.6546 7.54732 21.4572 7.54732 20.36ZM5.83179 20.5647C5.83179 22.4761 7.04659 23.9957 9.12787 23.9957C11.2091 23.9957 12.437 22.4761 12.437 20.5647C12.437 18.3745 11.0045 17.0465 9.12787 17.0465C7.25124 17.0465 5.83179 18.3745 5.83179 20.5647Z" fill="#004B9D"/>
    <path d="M19.3906 23.839H17.8361V22.9376H17.81C17.3093 23.5821 16.5952 23.9957 15.7375 23.9957C14.244 23.9957 13.5952 22.8854 13.5952 21.3919V17.2032H15.2367V20.7475C15.2367 21.5617 15.2498 22.6546 16.3035 22.6546C17.4922 22.6546 17.7491 21.3005 17.7491 20.4514V17.2032H19.3906V23.8433V23.839Z" fill="#004B9D"/>
    <path d="M20.9624 17.1989H22.5169V18.1002H22.5386C23.0524 17.3382 23.7534 17.0421 24.6112 17.0421C26.1047 17.0421 26.7534 18.1524 26.7534 19.6459V23.8346H25.1119V20.2903C25.1119 19.4761 25.0989 18.3832 24.0452 18.3832C22.8565 18.3832 22.5996 19.7373 22.5996 20.5907V23.8389H20.9581V17.1989H20.9624Z" fill="#004B9D"/>
    <path d="M29.6315 20.4992C29.6315 19.611 29.9233 18.3831 30.9944 18.3831C32.0655 18.3831 32.4617 19.5718 32.4617 20.4992C32.4617 21.4267 32.1047 22.6502 31.0162 22.6502C29.9276 22.6502 29.6315 21.4136 29.6315 20.4992ZM32.5227 23.8389H34.1163V14.1683H32.4748V17.9738H32.4487C31.961 17.3425 31.3819 17.0464 30.5633 17.0464C28.6257 17.0464 27.916 18.6705 27.916 20.5036C27.916 22.3367 28.6257 24 30.5633 24C31.334 24 32.0089 23.7431 32.5009 23.0987H32.5227V23.8476V23.8389Z" fill="#004B9D"/>
    <path d="M36.8507 21.9187C36.8507 20.8999 37.9392 20.7693 38.6751 20.7693H39.3848C39.3848 21.2874 39.3108 21.762 39.0408 22.1365C38.7839 22.4978 38.3921 22.7286 37.887 22.7286C37.2992 22.7286 36.8463 22.4848 36.8463 21.9144L36.8507 21.9187ZM36.0191 19.032C36.5677 18.5922 37.2687 18.3092 37.9653 18.3092C38.932 18.3092 39.3892 18.6706 39.3892 19.7417H38.4835C37.7955 19.7417 36.99 19.807 36.363 20.1292C35.736 20.4514 35.2832 21.0349 35.2832 22.0232C35.2832 23.2859 36.3717 23.9957 37.4864 23.9957C38.2353 23.9957 39.0539 23.582 39.4327 22.8462H39.4588C39.4719 23.0508 39.4719 23.4906 39.5328 23.8389H40.9784C40.9392 23.3251 40.9175 22.8592 40.9044 22.3542C40.8913 21.8621 40.8826 21.3614 40.8826 20.6909V19.8418C40.8826 17.8825 40.0858 17.0421 38.1613 17.0421C37.4646 17.0421 36.6069 17.2337 35.9712 17.5428L36.0191 19.0276V19.032Z" fill="#004B9D"/>
    <path d="M42.9116 18.4616H41.6968V17.1989H42.9116V15.8708L44.5532 15.3179V17.1989H46.0118V18.4616H44.5532V21.5573C44.5532 22.1234 44.7012 22.6546 45.3238 22.6546C45.6199 22.6546 45.8986 22.5893 46.0727 22.4761L46.1206 23.8433C45.781 23.9478 45.4022 24 44.9102 24C43.6257 24 42.9116 23.1597 42.9116 21.8447V18.4659V18.4616Z" fill="#004B9D"/>
    <path d="M47.0524 17.1988H48.6939V23.8388H47.0524V17.1988ZM47.0524 14.3337H48.6939V15.984H47.0524V14.3337Z" fill="#004B9D"/>
    <path d="M51.6112 20.36C51.6112 19.3673 52.1249 18.3876 53.1917 18.3876C54.2585 18.3876 54.7853 19.3411 54.7853 20.36C54.7853 21.4703 54.4544 22.6546 53.1917 22.6546C51.929 22.6546 51.6112 21.4572 51.6112 20.36ZM49.8956 20.5647C49.8956 22.4761 51.1104 23.9957 53.1917 23.9957C55.273 23.9957 56.4965 22.4761 56.4965 20.5647C56.4965 18.3745 55.064 17.0465 53.1917 17.0465C51.3194 17.0465 49.8956 18.3745 49.8956 20.5647Z" fill="#004B9D"/>
    <path d="M57.6635 17.1989H59.2222V18.1002H59.2484C59.7621 17.3382 60.4632 17.0421 61.3166 17.0421C62.81 17.0421 63.4588 18.1524 63.4588 19.6459V23.8346H61.8173V20.2903C61.8173 19.4761 61.8042 18.3832 60.7505 18.3832C59.5619 18.3832 59.305 19.7373 59.305 20.5907V23.8389H57.6635V17.1989Z" fill="#004B9D"/>
    <path d="M69.6199 20.36C69.6199 19.3673 70.1337 18.3876 71.2005 18.3876C72.2673 18.3876 72.7941 19.3411 72.7941 20.36C72.7941 21.4703 72.4632 22.6546 71.2005 22.6546C69.9378 22.6546 69.6199 21.4572 69.6199 20.36ZM67.9044 20.5647C67.9044 22.4761 69.1149 23.9957 71.2005 23.9957C73.2861 23.9957 74.5096 22.4761 74.5096 20.5647C74.5096 18.3745 73.0771 17.0465 71.2005 17.0465C69.3239 17.0465 67.9044 18.3745 67.9044 20.5647Z" fill="#004B9D"/>
    <path d="M76.273 18.4614H75.0582V17.1987H76.273V16.2713C76.273 14.9433 76.9828 14.0159 78.2803 14.0159C78.6983 14.0159 79.1642 14.0812 79.482 14.1552L79.347 15.5877C79.199 15.4963 78.99 15.3569 78.6373 15.3569C78.0887 15.3569 77.9145 15.8577 77.9145 16.3758V17.1987H79.347V18.4614H77.9145V23.8388H76.273V18.4614Z" fill="#004B9D"/>
    <path d="M83.7447 14.8389H85.4602V18.7097L88.5473 14.8389H90.6547L87.1366 19.0798L90.7984 23.8389H88.556L85.482 19.6632H85.4602V23.8389H83.7447V14.8389Z" fill="#004B9D"/>
    <path d="M92.9581 20.36C92.9581 19.3673 93.4719 18.3876 94.5386 18.3876C95.6054 18.3876 96.1322 19.3411 96.1322 20.36C96.1322 21.4703 95.8013 22.6546 94.5386 22.6546C93.2759 22.6546 92.9581 21.4572 92.9581 20.36ZM91.2426 20.5647C91.2426 22.4761 92.4574 23.9957 94.5386 23.9957C96.6199 23.9957 97.8478 22.4761 97.8478 20.5647C97.8478 18.3745 96.4153 17.0465 94.5386 17.0465C92.662 17.0465 91.2426 18.3745 91.2426 20.5647Z" fill="#004B9D"/>
    <path d="M99.0452 17.1989H100.504V18.7054H100.526C100.6 18.0871 101.275 17.0421 102.254 17.0421C102.411 17.0421 102.585 17.0421 102.755 17.0944V18.836C102.607 18.7446 102.311 18.6923 102.019 18.6923C100.682 18.6923 100.682 20.4471 100.682 21.4006V23.8389H99.0408V17.1989H99.0452Z" fill="#004B9D"/>
    <path d="M104.597 19.868C104.671 18.9797 105.137 18.3092 106.055 18.3092C106.974 18.3092 107.344 19.032 107.392 19.868H104.597ZM108.494 22.0625C107.88 22.4239 107.196 22.733 106.399 22.733C105.385 22.733 104.671 22.1278 104.601 21.0567H108.964C108.964 18.7359 108.302 17.0465 105.964 17.0465C104.005 17.0465 103.038 18.6314 103.038 20.5559C103.038 22.733 104.253 24.0001 106.334 24.0001C107.218 24.0001 107.901 23.8215 108.502 23.4732V22.0668L108.494 22.0625Z" fill="#004B9D"/>
    <path d="M111.289 21.9187C111.289 20.8999 112.378 20.7693 113.113 20.7693H113.823C113.823 21.2874 113.749 21.762 113.479 22.1365C113.222 22.4978 112.83 22.7286 112.33 22.7286C111.742 22.7286 111.289 22.4848 111.289 21.9144V21.9187ZM110.453 19.032C111.006 18.5922 111.703 18.3092 112.404 18.3092C113.37 18.3092 113.823 18.6706 113.823 19.7417H112.917C112.234 19.7417 111.42 19.807 110.797 20.1292C110.174 20.4514 109.721 21.0349 109.721 22.0232C109.721 23.2859 110.81 23.9957 111.925 23.9957C112.674 23.9957 113.492 23.582 113.871 22.8462H113.893C113.906 23.0508 113.906 23.4906 113.967 23.8389H115.412C115.373 23.3251 115.351 22.8592 115.338 22.3542C115.325 21.8621 115.312 21.3614 115.312 20.6909V19.8418C115.312 17.8825 114.515 17.0421 112.591 17.0421C111.894 17.0421 111.036 17.2337 110.396 17.5428L110.444 19.0276L110.453 19.032Z" fill="#004B9D"/>
  </mask>
  <g mask="url(#mask0_918_250)">
    <rect x="0.293335" width="114.949" height="23.9478" fill="#AAAAAA"/>
  </g>
</svg>