<svg xmlns="http://www.w3.org/2000/svg" width="34" height="24" viewBox="0 0 34 24" fill="none">
  <mask id="mask0_921_299" style="mask-type:alpha" maskUnits="userSpaceOnUse" x="0" y="0" width="34" height="24">
    <path d="M19.9306 10.2291C19.3813 10.2291 18.849 10.5212 18.849 11.3553V18.8656H20.4807C20.9987 18.8638 21.2041 18.636 21.2041 18.1716V15.7682H24.7436C25.2625 15.7682 25.467 15.5378 25.467 15.0716V13.8498H21.2041V12.1225H25.3009C25.818 12.1225 26.0234 11.893 26.0234 11.4286V10.2291H19.9306Z" fill="#004B9D"/>
    <path d="M8.48523 17.7393V10.2291H6.86958C6.35068 10.2291 6.14616 10.4578 6.14616 10.9222V15.0287L2.54333 10.2291H1.49392C0.944651 10.2291 0.413247 10.5212 0.412354 11.3553V18.8656H2.02889C2.5469 18.8656 2.75143 18.6369 2.75143 18.1725V14.0624L6.43643 18.8656H7.40367C7.95294 18.8656 8.48434 18.5744 8.48523 17.7393Z" fill="#004B9D"/>
    <path d="M23.9826 8.59193C24.0317 7.67827 24.1951 4.07187 24.1951 4.07187C24.205 3.90932 24.18 3.82358 24.0603 3.73605C18.255 -0.568766 12.8088 -0.204374 10.5126 2.05342C8.70405 3.83162 8.27892 6.86911 9.55608 9.57793C9.69183 9.88159 9.8383 9.83247 9.76775 9.5172C9.34441 7.64612 9.58019 5.79558 10.8699 4.49163C13.3036 2.0302 19.1071 4.08169 23.8522 8.63391C23.9308 8.69642 23.979 8.66338 23.9835 8.59282L23.9826 8.59193Z" fill="url(#paint0_linear_921_299)"/>
    <path d="M28.6741 5.55005C27.5265 4.12196 25.2848 1.77485 22.7251 0.0448816C22.5992 -0.0453231 22.5259 0.00826287 22.5259 0.135979L22.2946 4.8954C22.2884 5.0249 22.3223 5.07491 22.4071 5.13743C23.3422 5.85639 24.3202 6.75844 25.2294 7.65245C28.4517 10.8239 32.0019 18.0724 29.1109 21.1376C26.8468 23.5374 21.8659 22.8578 16.8966 19.3541C16.6233 19.162 16.4902 19.3371 16.7144 19.5148C17.3566 20.1364 18.6409 21.0242 19.6313 21.6958C23.8754 24.5743 28.4642 24.4948 30.6417 22.8872C34.7018 19.889 33.7783 11.8992 28.675 5.55005H28.6741Z" fill="url(#paint1_linear_921_299)"/>
    <path d="M16.801 18.8655H18.882C17.3413 17.282 16.5009 16.3621 15.9016 15.602C17.1583 14.9956 17.712 13.9837 17.712 13.0236C17.712 11.4348 16.7197 10.3184 14.8683 10.2344C14.779 10.2299 11.4289 10.2344 9.86328 10.2344V18.8655H11.478C11.996 18.8655 12.2015 18.6368 12.2006 18.1724V14.5482C13.2652 16.0013 14.2529 17.2534 15.3551 18.3243C15.7069 18.6699 16.2991 18.8655 16.7992 18.8655H16.801ZM14.0609 14.0766C13.8412 14.0766 12.7838 14.0766 12.2024 14.0766V11.9894C12.6078 11.9894 13.8555 11.9894 14.1118 11.9894C14.7585 11.9894 15.2577 12.41 15.2577 13.0299C15.2577 13.7318 14.6941 14.0757 14.0609 14.0757V14.0766Z" fill="#004B9D"/>
  </mask>
  <g mask="url(#mask0_921_299)">
    <rect x="0.367676" y="0.373535" width="32.7774" height="23.6676" fill="#AAAAAA"/>
  </g>
  <defs>
    <linearGradient id="paint0_linear_921_299" x1="20.5252" y1="12.9218" x2="10.0567" y2="2.35419" gradientUnits="userSpaceOnUse">
      <stop stop-color="#00A3E9"/>
      <stop offset="1" stop-color="#004EA2"/>
    </linearGradient>
    <linearGradient id="paint1_linear_921_299" x1="30.4032" y1="2.16871" x2="22.4241" y2="24.0929" gradientUnits="userSpaceOnUse">
      <stop offset="0.13" stop-color="#B0CF00"/>
      <stop offset="0.26" stop-color="#ACCD01"/>
      <stop offset="0.36" stop-color="#A1CA05"/>
      <stop offset="0.46" stop-color="#8FC40C"/>
      <stop offset="0.56" stop-color="#76BB16"/>
      <stop offset="0.66" stop-color="#55B022"/>
      <stop offset="0.75" stop-color="#2EA331"/>
      <stop offset="0.84" stop-color="#009444"/>
    </linearGradient>
  </defs>
</svg>