<svg xmlns="http://www.w3.org/2000/svg" width="33" height="32" viewBox="0 0 33 32" fill="none">
  <path d="M16.2532 32C25.0897 32 32.2532 24.8366 32.2532 16C32.2532 7.16344 25.0897 0 16.2532 0C7.41662 0 0.253174 7.16344 0.253174 16C0.253174 24.8366 7.41662 32 16.2532 32Z" fill="#AAAAAA"/>
  <path d="M19.7006 14.8629C18.6958 14.8629 17.887 15.7453 17.887 16.8482C17.887 17.9266 18.6958 18.8089 19.7006 18.8089C20.73 18.8089 21.5388 17.9266 21.5388 16.8482C21.5388 15.7453 20.73 14.8629 19.7006 14.8629ZM13.2057 14.8629C12.2008 14.8629 11.3675 15.7453 11.3675 16.8482C11.3675 17.9266 12.2008 18.8089 13.2057 18.8089C14.2106 18.8089 15.0194 17.9266 15.0194 16.8482C15.0194 15.7453 14.2106 14.8629 13.2057 14.8629ZM21.4163 23C21.4163 23 20.7791 22.2157 20.2398 21.554C22.5927 20.8922 23.4751 19.4217 23.4751 19.4217C22.7398 19.9118 22.029 20.255 21.4163 20.4756C20.5094 20.8432 19.6516 21.1128 18.8183 21.2598C17.1027 21.5785 15.5341 21.5049 14.1861 21.2598C13.1567 21.0638 12.2744 20.7697 11.5636 20.4756C11.1469 20.3285 10.7058 20.1324 10.2401 19.8628C10.1911 19.8383 10.1421 19.8138 10.093 19.7648C10.044 19.7648 10.0195 19.7403 9.995 19.7403C9.67638 19.5442 9.50482 19.4217 9.50482 19.4217C9.50482 19.4217 10.3626 20.8432 12.642 21.5294C12.1028 22.2157 11.441 23 11.441 23C7.49506 22.8775 6 20.2795 6 20.2795C6 14.5198 8.57347 9.86307 8.57347 9.86307C11.1469 7.92684 13.5733 8.00037 13.5733 8.00037L13.7694 8.19644C10.5342 9.12779 9.06365 10.5493 9.06365 10.5493C9.06365 10.5493 9.4558 10.3287 10.1421 10.0346C12.0538 9.20132 13.5488 8.98073 14.1861 8.90721C14.2841 8.90721 14.3821 8.8827 14.4802 8.85819C15.5831 8.73564 16.8086 8.68662 18.1075 8.83368C19.7987 9.02975 21.6124 9.54445 23.4751 10.5493C23.4751 10.5493 22.078 9.20132 19.0389 8.26997L19.284 8.00037C19.284 8.00037 21.7104 7.92684 24.2839 9.86307C24.2839 9.86307 26.8573 14.5198 26.8573 20.2795C26.8573 20.2795 25.3623 22.8775 21.4163 23Z" fill="#1C1C1E"/>
</svg>