<svg xmlns="http://www.w3.org/2000/svg" width="34" height="32" viewBox="0 0 34 32" fill="none">
  <path d="M17.0001 0.000857075C12.6055 -0.0437994 8.37295 1.6582 5.23268 4.73281C2.09242 7.80741 0.301375 12.003 0.253174 16.3976C0.270107 19.8705 1.38731 23.2488 3.44431 26.0471C5.50132 28.8454 8.39228 30.9197 11.702 31.9722C12.5393 32.1244 12.8438 31.622 12.8438 31.1805C12.8438 30.739 12.8438 29.7647 12.8438 28.3945C8.18511 29.384 7.19552 26.2021 7.19552 26.2021C6.8854 25.2033 6.22608 24.3494 5.33814 23.7967C3.8157 22.7919 5.45994 22.8071 5.45994 22.8071C5.98617 22.8774 6.48965 23.066 6.93261 23.3587C7.37557 23.6514 7.74652 24.0405 8.01764 24.497C8.49011 25.3163 9.26534 25.9173 10.1765 26.1707C11.0876 26.4241 12.0619 26.3096 12.8895 25.852C12.9746 25.0183 13.3521 24.2416 13.9552 23.6597C10.2404 23.2486 6.34295 21.8479 6.34295 15.5602C6.30973 13.9201 6.91576 12.3313 8.03287 11.1299C7.52411 9.72177 7.58418 8.17077 8.20034 6.80619C8.20034 6.80619 9.61621 6.36468 12.7677 8.48088C15.511 7.74986 18.3978 7.74986 21.1411 8.48088C24.3383 6.36468 25.7085 6.80619 25.7085 6.80619C26.3246 8.17077 26.3847 9.72177 25.8759 11.1299C27.019 12.3093 27.6579 13.8874 27.6572 15.5298C27.6572 21.8327 23.7293 23.2181 20.045 23.6292C20.4484 24.0209 20.76 24.4971 20.9574 25.0236C21.1549 25.55 21.2332 26.1137 21.1868 26.6741V31.1653C21.1868 31.1653 21.4913 32.1244 22.3286 31.957C25.6289 30.898 28.5101 28.8231 30.5608 26.0288C32.6114 23.2345 33.7266 19.8636 33.747 16.3976C33.6988 12.003 31.9077 7.80741 28.7675 4.73281C25.6272 1.6582 21.3947 -0.0437994 17.0001 0.000857075Z" fill="#AAAAAA"/>
</svg>