<svg xmlns="http://www.w3.org/2000/svg" width="33" height="32" viewBox="0 0 33 32" fill="none">
  <path d="M16.2532 32C25.0897 32 32.2532 24.8366 32.2532 16C32.2532 7.16344 25.0897 0 16.2532 0C7.41662 0 0.253174 7.16344 0.253174 16C0.253174 24.8366 7.41662 32 16.2532 32Z" fill="#AAAAAA"/>
  <path d="M26.0537 11.4988C25.368 11.8028 24.6305 12.0084 23.857 12.1003C24.6467 11.6271 25.2528 10.8784 25.5389 9.98483C24.7999 10.4232 23.981 10.7412 23.1103 10.9126C22.4126 10.1697 21.4187 9.70532 20.318 9.70532C18.2063 9.70532 16.4936 11.418 16.4936 13.5298C16.4936 13.8295 16.5275 14.1213 16.5931 14.4014C13.4147 14.242 10.5965 12.7195 8.71004 10.405C8.3809 10.9697 8.19209 11.6271 8.19209 12.3279C8.19209 13.6544 8.86776 14.8255 9.8934 15.5112C9.26678 15.4915 8.67667 15.3195 8.16129 15.0323C8.161 15.0485 8.161 15.0648 8.161 15.0808C8.161 16.9338 9.47984 18.4794 11.2291 18.8305C10.9085 18.9183 10.5699 18.9648 10.2217 18.9648C9.97468 18.9648 9.73539 18.9412 9.50208 18.8967C9.98866 20.4157 11.4008 21.5215 13.0747 21.5526C11.7656 22.5785 10.1167 23.1897 8.32443 23.1897C8.0164 23.1897 7.71122 23.1718 7.4126 23.1361C9.10421 24.2216 11.115 24.8545 13.2746 24.8545C20.3092 24.8545 24.1562 19.027 24.1562 13.9727C24.1562 13.807 24.1524 13.6419 24.145 13.4781C24.8929 12.9391 25.5412 12.2657 26.0537 11.4988Z" fill="#1C1C1E"/>
</svg>