<svg xmlns="http://www.w3.org/2000/svg" width="33" height="32" viewBox="0 0 33 32" fill="none">
  <path d="M16.2532 0C7.41717 0 0.253174 7.164 0.253174 16C0.253174 24.836 7.41717 32 16.2532 32C25.0892 32 32.2532 24.836 32.2532 16C32.2532 7.162 25.0892 0 16.2532 0ZM26.0832 19.582C25.9752 20.914 24.9652 22.614 23.5492 22.86C19.0232 23.21 13.6512 23.168 8.95917 22.86C7.49517 22.676 6.53317 20.912 6.42517 19.582C6.19717 16.786 6.19717 15.194 6.42517 12.398C6.53317 11.068 7.51917 9.314 8.95917 9.154C13.5972 8.764 18.9952 8.848 23.5492 9.154C25.1812 9.214 25.9752 10.892 26.0832 12.224C26.3092 15.02 26.3092 16.786 26.0832 19.582ZM14.2532 20L20.2532 16L14.2532 12V20Z" fill="#AAAAAA"/>
</svg>